<svg version="1.1" id="Layer_1" xmlns="http://www.w3.org/2000/svg" xmlns:xlink="http://www.w3.org/1999/xlink" x="0px" y="0px"
	 width="32px" height="44px" viewBox="0 0 32 44" enable-background="new 0 0 32 44" xml:space="preserve">
<g>
	<path fill="#383838" d="M3.069,0h25.927C30.629,0,32,1.359,32,3.042v37.917C32,42.642,30.629,44,28.931,44H3.069
		C1.372,44,0,42.642,0,40.959V3.042C0,1.359,1.372,0,3.069,0L3.069,0z"/>
	<path fill="#FFFFFF" d="M3.2,43.354c-1.372,0-2.547-1.165-2.547-2.589V3.235c0-1.424,1.175-2.588,2.547-2.588h25.6
		c1.372,0,2.547,1.165,2.547,2.588v37.529c0,1.424-1.175,2.589-2.547,2.589H3.2z"/>
	<path fill="#000000" d="M5.225,12.941H3.918V5.176H2.612V4.529l2.612-1.294V12.941z"/>
	<path fill="#000000" d="M11.755,9.447c0,1.035-0.261,1.941-0.719,2.523c-0.457,0.647-1.11,0.906-1.894,0.906s-1.437-0.323-1.894-0.906
		c-0.457-0.647-0.718-1.488-0.718-2.523V6.665c0-1.035,0.261-1.876,0.718-2.523c0.457-0.583,1.11-0.906,1.894-0.906
		s1.437,0.323,1.894,0.971c0.458,0.647,0.719,1.488,0.719,2.523V9.447z M10.449,6.471c0-0.647,0.065-1.229-0.196-1.618
		C9.992,4.465,9.6,4.271,9.143,4.271c-0.458,0-0.849,0.194-1.11,0.583S7.837,5.824,7.837,6.471v3.235
		c0,0.647-0.065,1.229,0.196,1.618s0.653,0.582,1.11,0.582c0.457,0,0.849-0.194,1.11-0.582c0.261-0.388,0.196-0.971,0.196-1.618
		V6.471z"/>
	<path fill="#1A1A1A" d="M11.755,40.118v-0.647c1.632,0,1.959-0.259,1.959-2.588V23.941c-0.522,0-1.959,0-1.959,0v-0.647
		c1.828-0.324,3.461-1.553,4.506-3.882h0.718v17.471c0,2.265,0.327,2.652,1.959,2.652v0.583H11.755z"/>
	<path fill="#1A1A1A" d="M23.902,19.412L23.902,19.412c-4.179,0-5.616,5.629-5.616,10.353c0,4.789,1.372,10.353,5.551,10.353
		s5.551-5.694,5.551-10.353C29.388,25.042,28.017,19.412,23.902,19.412z M25.47,36.947c0,0.776-0.718,1.424-1.633,1.424
		s-1.633-0.647-1.633-1.424V22.583c0-0.777,0.718-1.424,1.633-1.424s1.633,0.647,1.633,1.424V36.947z"/>
	<path fill="#231F20" d="M6.857,23.294h2.547L9.339,23.1c-2.417-0.194-2.286-3.494-2.286-3.494s0.261,1.747,2.09,1.747
		c1.959,0,1.959-1.941,1.959-1.941c0-1.359-1.306-1.941-1.959-1.941c-0.653,0-0.849,0.129-0.849,0.129
		c0.849-0.776,0.849-0.97,0.849-1.423c-0.065-1.1-1.306-1.941-2.286-1.941c-0.98,0-2.286,0.841-2.286,1.941
		c0,0.647,0,0.647,0.849,1.423c0,0-0.392-0.129-0.849-0.129c-0.653,0-1.959,0.583-1.959,1.941c0,0,0.131,1.941,1.959,1.941
		c1.959,0,2.09-1.812,2.09-1.812s0.065,3.235-2.286,3.494l-0.065,0.259H6.857L6.857,23.294z"/>
</g>
</svg>
