<svg xmlns="http://www.w3.org/2000/svg" xmlns:xlink="http://www.w3.org/1999/xlink" version="1.1" id="Layer_1" x="0px" y="0px" width="32px" height="44px" viewBox="0 0 32 44" enable-background="new 0 0 32 44" xml:space="preserve">
<g>
	<path fill="#383838" d="M3.069,0h25.927C30.629,0,32,1.359,32,3.041v37.918C32,42.642,30.629,44,28.931,44H3.069   C1.372,44,0,42.642,0,40.959V3.041C0,1.359,1.372,0,3.069,0L3.069,0z"/>
	<path fill="#FFFFFF" d="M3.2,43.353c-1.372,0-2.547-1.164-2.547-2.588V3.235c0-1.424,1.175-2.588,2.547-2.588h25.6   c1.372,0,2.548,1.165,2.548,2.588v37.529c0,1.424-1.176,2.588-2.548,2.588H3.2z"/>
	<path fill="#1A1A1A" d="M6.922,23.294h2.743L9.6,23.035c-1.176-0.064-1.567-0.453-2.09-0.97c-0.522-0.583-0.457-2.136-0.457-2.136 c0.915,1.165,1.502,1.488,1.894,1.488c0.718,0,1.371-0.194,1.894-0.97c0.522-0.777,0.196-1.941-1.632-3.171 C7.379,16.047,6.792,14.3,6.792,14.3s-0.588,1.747-2.417,2.977S2.22,19.67,2.743,20.447c0.587,0.711,1.306,0.906,2.024,0.906 c0.458,0,0.98-0.324,1.895-1.488c0,0,0.065,1.553-0.458,2.135s-0.914,0.906-2.09,0.971l-0.065,0.323H6.922L6.922,23.294z"/>
	<path fill="#000000" d="M5.225,12.941H3.918V5.176H2.612V4.529l2.612-1.294V12.941z"/>
	<path fill="#000000" d="M11.755,9.447c0,1.035-0.261,1.941-0.719,2.523c-0.457,0.647-1.11,0.906-1.894,0.906s-1.437-0.324-1.894-0.906 c-0.457-0.647-0.718-1.488-0.718-2.523V6.665c0-1.035,0.261-1.876,0.718-2.523c0.457-0.583,1.11-0.906,1.894-0.906 s1.437,0.323,1.894,0.971c0.458,0.647,0.719,1.488,0.719,2.523V9.447z M10.449,6.471c0-0.647,0.065-1.229-0.196-1.618 C9.992,4.464,9.6,4.271,9.143,4.271c-0.458,0-0.849,0.194-1.11,0.583c-0.261,0.388-0.196,0.97-0.196,1.618v3.235 c0,0.647-0.065,1.229,0.196,1.617c0.261,0.389,0.653,0.583,1.11,0.583c0.457,0,0.849-0.194,1.11-0.583 c0.261-0.388,0.196-0.97,0.196-1.617V6.471z"/>
	<path fill="#1A1A1A" d="M11.755,40.117v-0.646c1.632,0,1.959-0.259,1.959-2.588V23.941c-0.522,0-1.959,0-1.959,0v-0.647 c1.828-0.323,3.461-1.553,4.506-3.882h0.718v17.471c0,2.265,0.327,2.652,1.959,2.652v0.582H11.755z"/>
	<path fill="#1A1A1A" d="M23.902,19.412L23.902,19.412c-4.179,0-5.616,5.63-5.616,10.353c0,4.788,1.372,10.353,5.551,10.353 s5.551-5.693,5.551-10.353C29.388,25.042,28.017,19.412,23.902,19.412z M25.47,36.947c0,0.776-0.718,1.423-1.633,1.423 s-1.633-0.646-1.633-1.423V22.583c0-0.776,0.718-1.424,1.633-1.424s1.633,0.647,1.633,1.424V36.947z"/>
</g>
</svg>
