<svg xmlns="http://www.w3.org/2000/svg" xmlns:xlink="http://www.w3.org/1999/xlink" version="1.1" id="Layer_1" x="0px" y="0px" width="32px" height="44px" viewBox="0 0 32 44" enable-background="new 0 0 32 44" xml:space="preserve">
<g>
	<path fill="#383838" d="M3.069,0h25.927C30.629,0,32,1.359,32,3.042v37.917C32,42.642,30.629,44,28.931,44H3.069   C1.372,44,0,42.642,0,40.959V3.042C0,1.359,1.372,0,3.069,0L3.069,0z"/>
	<path fill="#FFFFFF" d="M3.2,43.353c-1.372,0-2.547-1.164-2.547-2.588V3.235c0-1.424,1.175-2.588,2.547-2.588h25.6   c1.372,0,2.548,1.165,2.548,2.588v37.529c0,1.424-1.176,2.588-2.548,2.588H3.2z"/>
	<path fill="#1A1A1A" d="M6.922,23.294h2.743L9.6,23.035c-1.176-0.064-1.567-0.453-2.09-0.97c-0.522-0.583-0.458-2.136-0.458-2.136 c0.915,1.165,1.502,1.488,1.895,1.488c0.718,0,1.371-0.194,1.894-0.97c0.522-0.777,0.196-1.941-1.633-3.171S6.792,14.3,6.792,14.3 s-0.588,1.747-2.417,2.977S2.22,19.67,2.743,20.447c0.588,0.711,1.306,0.906,2.024,0.906c0.458,0,0.979-0.324,1.894-1.488 c0,0,0.065,1.553-0.457,2.135s-0.914,0.906-2.09,0.971l-0.065,0.323H6.922L6.922,23.294z"/>
	<path fill="#000000" d="M9.143,12.941h1.306L7.51,3.235H6.204l-2.939,9.706h1.306L5.159,11h3.461L9.143,12.941z M5.551,9.706l1.306-4.53h0.065 l1.306,4.53H5.551z"/>
	<path fill="#1A1A1A" d="M21.551,40.117v-0.971c1.567-0.259,1.763-0.646,1.371-1.94c-0.327-1.035-0.718-2.459-1.24-4.012h-5.291   c-0.326,1.165-0.718,2.33-1.044,3.559c-0.458,1.683-0.327,2.07,1.632,2.394v0.971h-5.877v-0.971   c1.698-0.259,2.09-0.582,3.004-3.234l5.42-16.112l1.175-0.388c1.698,5.436,3.396,11,5.094,16.371   c0.85,2.718,1.241,3.105,2.939,3.3v1.035H21.551z M19.135,24.524H19.07c-0.784,2.394-1.502,4.853-2.221,7.182h4.44L19.135,24.524z   "/>
</g>
</svg>
