<svg version="1.1" id="Layer_1" xmlns="http://www.w3.org/2000/svg" xmlns:xlink="http://www.w3.org/1999/xlink" x="0px" y="0px"
	 width="32px" height="44px" viewBox="0 0 32 44" enable-background="new 0 0 32 44" xml:space="preserve">
<g>
	<path fill="#383838" d="M3.069,0h25.927C30.629,0,32,1.359,32,3.041v37.918C32,42.642,30.629,44,28.931,44H3.069
		C1.372,44,0,42.642,0,40.959V3.041C0,1.359,1.372,0,3.069,0L3.069,0z"/>
	<path fill="#FFFFFF" d="M3.2,43.353c-1.372,0-2.547-1.164-2.547-2.588V3.235c0-1.424,1.175-2.588,2.547-2.588h25.6
		c1.372,0,2.548,1.165,2.548,2.588v37.529c0,1.424-1.176,2.588-2.548,2.588H3.2z"/>
	<path fill="#1A1A1A" d="M28.735,35.135c-0.522,1.748-0.85,3.56-1.241,4.982H14.368v-0.841c1.828-1.747,3.722-3.559,5.42-5.436
		c2.221-2.588,3.788-4.917,3.788-7.57c0-2.394-1.24-4.206-3.592-4.206c-2.089,0-3.526,1.488-4.505,2.911l-0.85-0.711l2.025-2.912
		c1.175-1.165,2.808-2.006,4.833-2.006c3.199,0,6.139,2.2,6.139,5.759c0,2.653-1.502,4.594-4.768,7.7l-3.918,3.882h5.225
		c1.959,0,2.417,0.259,3.591-1.812L28.735,35.135z"/>
	<path fill="#1A1A1A" d="M9.796,12.941H3.918v-1.294l3.004-3.17C7.445,7.83,7.771,7.312,7.968,6.924
		c0.196-0.389,0.261-0.777,0.261-1.165c0-0.453-0.13-0.776-0.392-1.1C7.576,4.4,7.249,4.206,6.792,4.206
		C6.27,4.271,5.877,4.4,5.616,4.788C5.29,5.112,5.225,5.306,5.225,5.823H3.918c0-0.776,0.261-1.229,0.784-1.747
		c0.522-0.582,1.241-0.841,2.155-0.841c0.849,0,1.502,0.259,1.959,0.712c0.457,0.453,0.718,1.1,0.718,1.812
		c0,0.518-0.13,0.971-0.392,1.488C8.882,7.7,8.49,8.347,7.902,9.059l-2.025,2.588h3.918V12.941z"/>
	<path fill="#231F20" d="M6.857,23.294h2.547L9.339,23.1c-2.417-0.194-2.286-3.495-2.286-3.495s0.261,1.748,2.09,1.748
		c1.959,0,1.959-1.941,1.959-1.941c0-1.359-1.306-1.941-1.959-1.941c-0.653,0-0.849,0.129-0.849,0.129
		c0.849-0.777,0.849-0.971,0.849-1.424c-0.065-1.1-1.306-1.941-2.286-1.941c-0.98,0-2.286,0.841-2.286,1.941
		c0,0.647,0,0.647,0.849,1.424c0,0-0.392-0.129-0.849-0.129c-0.653,0-1.959,0.582-1.959,1.941c0,0,0.131,1.941,1.959,1.941
		c1.959,0,2.09-1.812,2.09-1.812s0.065,3.235-2.286,3.494l-0.065,0.259H6.857L6.857,23.294z"/>
</g>
</svg>
