<svg version="1.1" id="Layer_1" xmlns="http://www.w3.org/2000/svg" xmlns:xlink="http://www.w3.org/1999/xlink" x="0px" y="0px"
	 width="32px" height="44px" viewBox="0 0 32 44" enable-background="new 0 0 32 44" xml:space="preserve">
<g>
	<path fill="#383838" d="M3.069,0h25.927C30.629,0,32,1.359,32,3.041v37.917C32,42.641,30.629,44,28.931,44H3.069
		C1.372,44,0,42.641,0,40.958V3.041C0,1.359,1.372,0,3.069,0L3.069,0z"/>
	<path fill="#FFFFFF" d="M3.2,43.353c-1.372,0-2.547-1.165-2.547-2.588V3.235c0-1.424,1.175-2.588,2.547-2.588h25.6
		c1.372,0,2.548,1.165,2.548,2.588v37.529c0,1.423-1.176,2.588-2.548,2.588H3.2z"/>
	<path fill="#ED0000" d="M28.735,35.135c-0.522,1.747-0.85,3.559-1.241,4.982H14.368v-0.841c1.828-1.747,3.722-3.559,5.42-5.436
		c2.221-2.588,3.788-4.917,3.788-7.571c0-2.394-1.24-4.206-3.592-4.206c-2.089,0-3.526,1.488-4.505,2.912l-0.85-0.712l2.025-2.912
		c1.175-1.165,2.808-2.006,4.833-2.006c3.199,0,6.139,2.2,6.139,5.759c0,2.653-1.502,4.594-4.768,7.7l-3.918,3.882h5.225
		c1.959,0,2.417,0.259,3.591-1.812L28.735,35.135z"/>
	<path fill="#ED0000" d="M9.796,12.941H3.918v-1.294l3.004-3.17c0.522-0.647,0.849-1.165,1.045-1.553
		c0.196-0.388,0.261-0.776,0.261-1.165c0-0.453-0.13-0.776-0.392-1.1C7.576,4.4,7.249,4.206,6.792,4.206
		C6.27,4.271,5.877,4.4,5.616,4.788C5.29,5.111,5.225,5.306,5.225,5.823H3.918c0-0.776,0.261-1.229,0.784-1.747
		c0.522-0.582,1.241-0.841,2.155-0.841c0.849,0,1.502,0.259,1.959,0.711c0.457,0.453,0.718,1.1,0.718,1.812
		c0,0.518-0.13,0.97-0.392,1.488C8.882,7.7,8.49,8.347,7.902,9.059l-2.025,2.588h3.918V12.941z"/>
	<path fill="#ED0000" d="M10.71,15.659c-0.588-0.453-1.176-0.776-1.567-0.776c-0.392,0-1.437-0.065-2.286,1.359
		c-0.849-1.424-1.829-1.294-2.221-1.294c-0.392,0-1.045,0.324-1.567,0.776c-0.522,0.518-0.457,1.359-0.261,1.812
		c0.196,0.453,4.049,5.112,4.049,5.112s3.918-4.724,4.114-5.177C11.167,17.017,11.233,16.176,10.71,15.659L10.71,15.659z"/>
</g>
</svg>
