<svg xmlns="http://www.w3.org/2000/svg" xmlns:xlink="http://www.w3.org/1999/xlink" version="1.1" id="Layer_1" x="0px" y="0px" width="32px" height="44px" viewBox="0 0 32 44" enable-background="new 0 0 32 44" xml:space="preserve">
 <g>
	<path fill="#383838" d="M3.063,0h25.874C30.632,0,32,1.359,32,3.042v37.917C32,42.642,30.632,44,28.938,44H3.063 C1.369,44,0,42.642,0,40.959V3.042C0.065,1.359,1.434,0,3.063,0L3.063,0z"/>
	<path fill="#FFFFFF" d="M3.259,43.354c-1.434,0-2.542-1.165-2.542-2.589V3.235c0-1.424,1.173-2.588,2.542-2.588h25.548 c1.435,0,2.542,1.165,2.542,2.588v37.529c0,1.424-1.174,2.589-2.542,2.589H3.259z"/>
	<path fill="#1A1A1A" d="M28.741,35.136c-0.521,1.747-0.847,3.559-1.238,4.982h-13.1v-0.841c1.825-1.748,3.715-3.56,5.41-5.436 c2.216-2.588,3.78-4.917,3.78-7.571c0-2.394-1.238-4.206-3.584-4.206c-2.085,0-3.52,1.488-4.497,2.912l-0.847-0.711l2.02-2.912 c1.174-1.165,2.803-2.006,4.823-2.006c3.194,0,6.126,2.2,6.126,5.759c-0.065,2.718-1.564,4.659-4.823,7.765l-3.845,3.818h5.149 c1.955,0,2.411,0.259,3.585-1.812L28.741,35.136z"/>
	<path fill="#1A1A1A" d="M6.974,23.294h2.737l-0.065-0.259c-1.173-0.064-1.564-0.452-2.085-0.97   c-0.521-0.582-0.456-2.135-0.456-2.135c0.912,1.165,1.499,1.488,1.89,1.488c0.717,0,1.369-0.194,1.89-0.971   c0.521-0.776,0.195-1.941-1.629-3.17C7.43,16.047,6.843,14.3,6.843,14.3s-0.586,1.747-2.412,2.977   c-1.825,1.229-2.15,2.394-1.629,3.17c0.587,0.712,1.239,0.906,1.956,0.906c0.456,0,0.978-0.323,1.89-1.488   c0,0,0.065,1.553-0.457,2.135c-0.521,0.583-0.912,0.906-2.085,0.971l-0.065,0.324H6.974L6.974,23.294z"/>
	<path fill="#1A1A1A" d="M9.841,12.941H3.976v-1.294l2.998-3.17C7.495,7.83,7.821,7.312,8.016,6.924 c0.196-0.388,0.261-0.777,0.261-1.165c0-0.453-0.13-0.776-0.391-1.1C7.625,4.4,7.3,4.206,6.843,4.206 c-0.521,0-0.978,0.194-1.238,0.518c-0.261,0.388-0.326,0.583-0.326,1.1H3.976c0-0.777,0.261-1.229,0.782-1.747 c0.456-0.583,1.173-0.841,2.085-0.841c0.847,0,1.499,0.259,1.955,0.712c0.457,0.453,0.717,1.1,0.717,1.812 c0,0.518-0.13,0.971-0.391,1.488C8.864,7.7,8.473,8.347,7.886,9.059l-2.021,2.588h3.911v1.294H9.841z"/>
</g>
</svg>
