<svg version="1.1" id="Layer_1" xmlns="http://www.w3.org/2000/svg" xmlns:xlink="http://www.w3.org/1999/xlink" x="0px" y="0px"
	 width="32px" height="44px" viewBox="0 0 32 44" enable-background="new 0 0 32 44" xml:space="preserve">
<g>
	<path fill="#383838" d="M3.07,0h25.926C30.629,0,32,1.359,32,3.042v37.917C32,42.642,30.629,44,28.931,44H3.07
		C1.372,44,0,42.642,0,40.959V3.042C0,1.359,1.372,0,3.07,0L3.07,0z"/>
	<path fill="#FFFFFF" d="M3.2,43.353c-1.372,0-2.547-1.164-2.547-2.588V3.235c0-1.424,1.175-2.588,2.547-2.588h25.6
		c1.372,0,2.547,1.165,2.547,2.588v37.529c0,1.424-1.175,2.588-2.547,2.588H3.2z"/>
	<path fill="#ED0000" d="M3.918,8.412l0.653-5.176h5.224v1.294H5.877L5.225,7.118C5.42,6.988,5.943,6.471,6.857,6.471
		c0.914,0,1.698,0.388,2.155,0.971C9.535,8.023,9.796,8.8,9.796,9.771c0,0.971-0.261,1.747-0.784,2.33s-1.306,0.906-2.286,0.906
		c-0.849,0-1.502-0.194-2.024-0.647C4.18,11.841,3.918,11,3.918,10.353h1.241c0,0.518,0.131,0.841,0.458,1.165
		c0.326,0.259,0.718,0.453,1.175,0.453c0.522,0,0.979-0.194,1.306-0.583C8.424,11,8.621,10.418,8.621,9.771
		c0-0.582-0.131-1.165-0.457-1.553C7.837,7.83,7.379,7.635,6.792,7.635c-0.522,0-0.915,0.129-1.11,0.259
		C5.42,8.023,5.355,8.153,5.159,8.412H3.918z"/>
	<path fill="#ED0000" d="M17.175,27.888c1.568-0.582,3.266-1.035,4.18-1.035c4.376,0,6.727,2.718,6.727,5.5
		c0,2.005-1.045,3.882-3.266,5.5c-1.894,1.358-4.245,2.2-6.204,2.265c-1.437,0-2.874-0.582-3.526-1.1
		c-0.588-0.518-0.784-0.841-0.718-1.229c0-0.453,0.457-1.1,0.979-1.488c0.392-0.259,0.718-0.194,1.11,0.129
		c0.784,0.713,2.286,1.877,4.31,1.877c2.351,0,3.526-2.006,3.526-4.399c0-2.912-1.894-4.918-5.224-4.918
		c-1.502,0-2.874,0.389-3.657,0.647l1.502-10.224h10.383l0.196,0.324l-1.045,2.782H18.09L17.175,27.888z"/>
	<polygon fill="#ED0000" points="6.857,14.882 5.029,17.276 2.612,19.088 5.029,20.9 6.857,23.294 8.686,20.9 11.102,19.088
		8.686,17.276 	"/>
</g>
</svg>
