<svg version="1.1" id="Layer_1" xmlns="http://www.w3.org/2000/svg" xmlns:xlink="http://www.w3.org/1999/xlink" x="0px" y="0px"
	 width="32px" height="44px" viewBox="0 0 32 44" enable-background="new 0 0 32 44" xml:space="preserve">
<g>
	<path fill="#383838" d="M3.069,0h25.927C30.629,0,32,1.359,32,3.042v37.917C32,42.642,30.629,44,28.931,44H3.069
		C1.372,44,0,42.642,0,40.959V3.042C0,1.359,1.372,0,3.069,0L3.069,0z"/>
	<path fill="#FFFFFF" d="M3.2,43.354c-1.372,0-2.547-1.165-2.547-2.589V3.235c0-1.424,1.175-2.588,2.547-2.588h25.6
		c1.372,0,2.547,1.165,2.547,2.588v37.529c0,1.424-1.175,2.589-2.547,2.589H3.2z"/>
	<path fill="#ED0000" d="M7.118,3.235c0.392,0,0.718,0.065,1.11,0.129c0.327,0.064,0.653,0.194,0.849,0.259L8.816,4.594
		C8.555,4.465,8.294,4.4,8.032,4.335C7.771,4.271,7.445,4.206,7.118,4.206c-0.588,0-1.045,0.259-1.437,0.776
		C5.29,5.5,5.159,6.147,5.159,6.924v0.388C5.42,7.053,6.073,6.535,7.053,6.535s1.568,0.389,2.024,0.906
		c0.458,0.518,0.719,1.488,0.719,2.329c0,0.971-0.261,1.747-0.784,2.33s-1.241,0.841-2.09,0.841s-1.567-0.324-2.155-0.971
		c-0.588-0.712-0.849-1.618-0.849-2.718v-2.2c0-1.1,0.326-2.006,0.914-2.717C5.485,3.624,6.204,3.235,7.118,3.235z M6.988,7.506
		c-0.392,0-1.241,0.129-1.829,1.036v0.841c0,0.777,0.196,1.424,0.522,1.876c0.327,0.453,0.784,0.712,1.241,0.712
		c0.522,0,0.914-0.194,1.175-0.583C8.359,11,8.49,10.482,8.49,9.835c0-0.583-0.065-1.359-0.327-1.747
		C7.902,7.635,7.51,7.506,6.988,7.506z"/>
	<path fill="#ED0000" d="M20.31,27.694c0.784-0.324,1.372-0.582,1.894-0.582c3.526,0,5.877,2.458,5.877,5.888
		c0,3.947-2.873,7.118-6.856,7.118c-3.854,0-6.857-3.041-6.857-8.024c0-6.794,4.767-10.417,8.294-11.647
		c1.306-0.453,3.199-0.841,4.44-1.035l0.196,1.165c-0.979,0.194-2.286,0.583-3.396,1.1c-1.698,0.841-4.441,2.718-5.355,6.858
		L20.31,27.694z M20.702,29.182c-0.915,0-1.633,0.195-2.352,0.519c-0.13,0.582-0.196,1.618-0.196,2.394
		c0,4.077,1.633,6.73,3.658,6.73c2.089,0,2.677-2.524,2.677-4.594C24.49,31.447,23.053,29.182,20.702,29.182L20.702,29.182z"/>
	<polygon fill="#ED0000" points="6.857,14.882 5.029,17.277 2.612,19.088 5.029,20.9 6.857,23.294 8.686,20.9 11.102,19.088
		8.686,17.277 	"/>
</g>
</svg>
