<svg xmlns="http://www.w3.org/2000/svg" xmlns:xlink="http://www.w3.org/1999/xlink" version="1.1" id="Layer_1" x="0px" y="0px" width="32px" height="44px" viewBox="0 0 32 44" enable-background="new 0 0 32 44" xml:space="preserve">
<g>
	<path fill="#383838" d="M3.069,0h25.927C30.629,0,32,1.359,32,3.042v37.917C32,42.642,30.629,44,28.931,44H3.069   C1.372,44,0,42.642,0,40.959V3.042C0,1.359,1.372,0,3.069,0L3.069,0z"/>
	<path fill="#FFFFFF" d="M3.2,43.354c-1.372,0-2.547-1.165-2.547-2.589V3.235c0-1.424,1.175-2.588,2.547-2.588h25.6   c1.372,0,2.547,1.165,2.547,2.588v37.529c0,1.424-1.175,2.589-2.547,2.589H3.2z"/>
	<path fill="#1A1A1A" d="M6.922,23.294h2.743L9.6,23.035c-1.176-0.064-1.568-0.452-2.09-0.97c-0.522-0.582-0.458-2.135-0.458-2.135 c0.915,1.165,1.502,1.488,1.894,1.488c0.718,0,1.372-0.194,1.894-0.971s0.196-1.941-1.633-3.17C7.379,16.047,6.792,14.3,6.792,14.3 s-0.587,1.747-2.416,2.977c-1.829,1.229-2.155,2.394-1.633,3.17c0.588,0.712,1.306,0.906,2.024,0.906 c0.458,0,0.979-0.323,1.894-1.488c0,0,0.065,1.553-0.457,2.135c-0.522,0.583-0.915,0.906-2.09,0.971l-0.065,0.324H6.922 L6.922,23.294z"/>
	<path fill="#000000" d="M9.796,4.465C8.555,5.953,7.902,6.924,7.445,8.088c-0.457,1.1-0.261,2.2-0.261,3.559v1.294H5.877v-1.294   c0-1.488,0.065-2.588,0.588-3.752C6.988,6.729,7.445,5.824,8.49,4.529H3.918V3.235h5.877V4.465z"/>
	<path fill="#1A1A1A" d="M28.734,19.8c-3.004,6.6-6.139,13.265-9.078,19.929l-2.939,0.389l-0.196-0.453   c3.592-5.63,6.857-11.712,9.536-17.212h-6.792c-2.155,0-2.351,0.259-3.2,2.265h-1.045c0.392-2.265,0.587-3.947,0.718-5.371h12.669   L28.734,19.8z"/>
</g>
</svg>
