<svg version="1.1" id="Layer_1" xmlns="http://www.w3.org/2000/svg" xmlns:xlink="http://www.w3.org/1999/xlink" x="0px" y="0px"
	 width="32px" height="44px" viewBox="0 0 32 44" enable-background="new 0 0 32 44" xml:space="preserve">
<g>
	<path fill="#383838" d="M3.069,0h25.927C30.629,0,32,1.359,32,3.041v37.918C32,42.642,30.629,44,28.931,44H3.069
		C1.372,44,0,42.642,0,40.959V3.041C0,1.359,1.372,0,3.069,0L3.069,0z"/>
	<path fill="#FFFFFF" d="M3.2,43.353c-1.372,0-2.547-1.164-2.547-2.588V3.235c0-1.424,1.175-2.588,2.547-2.588h25.6
		c1.372,0,2.548,1.165,2.548,2.588v37.529c0,1.424-1.176,2.588-2.548,2.588H3.2z"/>
	<path fill="#ED0000" d="M9.143,5.823c0,1.294-0.588,1.941-1.045,2.071C8.621,8.088,9.012,8.347,9.339,8.8
		c0.326,0.389,0.457,0.906,0.457,1.423c0,0.842-0.261,1.553-0.784,2.006c-0.522,0.453-1.241,0.711-2.09,0.711
		c-0.914,0-1.632-0.259-2.155-0.711c-0.587-0.453-0.849-1.165-0.849-2.006c0-0.517,0.131-0.97,0.457-1.423
		c0.327-0.388,0.718-0.711,1.306-0.906C5.225,7.7,4.571,7.118,4.571,5.823c0-1.941,1.502-2.588,2.351-2.588
		C7.706,3.235,9.143,3.882,9.143,5.823z M8.555,10.159c0-0.518-0.131-0.906-0.457-1.294C7.771,8.541,7.379,8.347,6.922,8.347
		c-0.522,0-0.914,0.194-1.241,0.518c-0.326,0.324-0.522,0.776-0.522,1.294s0.196,0.971,0.522,1.294
		c0.327,0.323,0.784,0.453,1.306,0.453c0.457,0,0.849-0.129,1.176-0.453C8.424,11.129,8.555,10.741,8.555,10.159z M8.033,5.888
		c0-0.647-0.196-1.618-1.11-1.618c-0.979,0-1.241,0.841-1.241,1.553c0,0.777,0.392,1.488,1.241,1.488
		C7.837,7.312,8.033,6.665,8.033,5.888z"/>
	<path fill="#ED0000" d="M21.486,19.412c3.395,0,5.747,2.135,5.747,4.853c0,0.906-0.327,1.747-0.98,2.458
		c-0.392,0.389-1.11,1.036-2.481,1.877c2.286,1.229,4.31,2.782,4.31,5.564c0,3.882-3.983,5.953-6.988,5.953
		c-3.983,0-6.726-2.07-6.726-5.436c0-1.488,0.718-2.329,1.371-2.911c0.522-0.518,1.894-1.423,2.938-2.006
		c-1.959-1.1-3.526-2.653-3.526-4.982C15.151,21.935,17.764,19.412,21.486,19.412L21.486,19.412z M21.42,38.953
		c1.894,0,3.2-1.424,3.135-3.624c0-2.329-1.829-3.364-4.768-4.853c-1.175,0.777-2.024,2.265-2.024,3.948
		C17.764,37.399,19.723,38.953,21.42,38.953L21.42,38.953z M21.094,20.576c-1.632,0-2.612,1.553-2.612,2.977
		c0,2.265,1.764,3.3,4.245,4.4c0.719-0.583,1.437-1.683,1.437-3.559C24.099,21.741,22.466,20.576,21.094,20.576L21.094,20.576z"/>
	<polygon fill="#ED0000" points="6.857,14.882 5.029,17.276 2.612,19.088 5.029,20.9 6.857,23.294 8.686,20.9 11.102,19.088
		8.686,17.276 	"/>
</g>
</svg>
