<svg xmlns="http://www.w3.org/2000/svg" xmlns:xlink="http://www.w3.org/1999/xlink" version="1.1" id="Layer_1" x="0px" y="0px" width="32px" height="44px" viewBox="0 0 32 44" enable-background="new 0 0 32 44" xml:space="preserve">
<g>
	<path fill="#383838" d="M3.069,0h25.927C30.629,0,32,1.359,32,3.042v37.917C32,42.642,30.629,44,28.931,44H3.069   C1.372,44,0,42.642,0,40.959V3.042C0,1.359,1.372,0,3.069,0L3.069,0z"/>
	<path fill="#FFFFFF" d="M3.2,43.354c-1.372,0-2.547-1.165-2.547-2.589V3.235c0-1.424,1.175-2.588,2.547-2.588h25.6   c1.371,0,2.547,1.165,2.547,2.588v37.529c0,1.424-1.176,2.589-2.547,2.589H3.2z"/>
	<path fill="#1A1A1A" d="M6.922,23.294h2.743L9.6,23.035c-1.176-0.064-1.567-0.452-2.09-0.97c-0.522-0.582-0.458-2.135-0.458-2.135 c0.915,1.165,1.502,1.488,1.895,1.488c0.718,0,1.371-0.194,1.894-0.971s0.196-1.941-1.633-3.17C7.379,16.047,6.792,14.3,6.792,14.3 s-0.588,1.747-2.417,2.977c-1.829,1.229-2.155,2.394-1.632,3.17c0.587,0.712,1.306,0.906,2.024,0.906 c0.458,0,0.979-0.323,1.894-1.488c0,0,0.065,1.553-0.457,2.135c-0.522,0.583-0.914,0.906-2.09,0.971l-0.065,0.324H6.922 L6.922,23.294z"/>
	<path fill="#000000" d="M9.143,5.824c0,1.294-0.587,1.941-1.045,2.071C8.621,8.088,9.012,8.347,9.338,8.8c0.327,0.388,0.458,0.906,0.458,1.423   c0,0.841-0.261,1.553-0.784,2.006c-0.522,0.453-1.241,0.712-2.09,0.712c-0.914,0-1.632-0.259-2.155-0.712   c-0.587-0.453-0.849-1.165-0.849-2.006c0-0.518,0.131-0.971,0.457-1.423c0.327-0.388,0.718-0.712,1.306-0.906   C5.225,7.7,4.571,7.118,4.571,5.824c0-1.941,1.502-2.588,2.351-2.588C7.706,3.235,9.143,3.882,9.143,5.824z M8.555,10.159   c0-0.518-0.131-0.906-0.458-1.294C7.771,8.542,7.379,8.347,6.922,8.347c-0.522,0-0.914,0.194-1.241,0.518   c-0.326,0.324-0.522,0.776-0.522,1.294c0,0.518,0.196,0.971,0.522,1.294c0.327,0.324,0.784,0.453,1.306,0.453   c0.457,0,0.849-0.129,1.175-0.453C8.424,11.13,8.555,10.741,8.555,10.159z M8.033,5.888c0-0.647-0.196-1.617-1.11-1.617   c-0.979,0-1.241,0.841-1.241,1.553c0,0.776,0.392,1.488,1.241,1.488C7.837,7.312,8.033,6.665,8.033,5.888z"/>
	<path fill="#1A1A1A" d="M21.486,19.412c3.396,0,5.747,2.135,5.747,4.853c0,0.906-0.326,1.747-0.979,2.458   c-0.393,0.389-1.11,1.036-2.481,1.877c2.286,1.229,4.31,2.782,4.31,5.564c0,3.882-3.983,5.953-6.987,5.953   c-3.983,0-6.727-2.071-6.727-5.436c0-1.488,0.718-2.33,1.372-2.912c0.522-0.518,1.894-1.423,2.938-2.005   c-1.959-1.1-3.526-2.653-3.526-4.983C15.151,21.936,17.763,19.412,21.486,19.412L21.486,19.412z M21.42,38.953   c1.895,0,3.2-1.424,3.135-3.624c0-2.329-1.829-3.364-4.767-4.853c-1.175,0.776-2.024,2.265-2.024,3.947   C17.763,37.4,19.723,38.953,21.42,38.953L21.42,38.953z M21.094,20.577c-1.633,0-2.612,1.553-2.612,2.977   c0,2.265,1.763,3.3,4.245,4.4c0.719-0.583,1.437-1.683,1.437-3.559C24.098,21.741,22.465,20.577,21.094,20.577L21.094,20.577z"/>
</g>
</svg>
