<svg version="1.1" id="Layer_1" xmlns="http://www.w3.org/2000/svg" xmlns:xlink="http://www.w3.org/1999/xlink" x="0px" y="0px"
	 width="32px" height="44px" viewBox="0 0 32 44" enable-background="new 0 0 32 44" xml:space="preserve">
<g>
	<path fill="#383838" d="M3.069,0h25.927C30.629,0,32,1.359,32,3.041v37.917C32,42.641,30.629,44,28.931,44H3.069
		C1.372,44,0,42.641,0,40.958V3.041C0,1.359,1.372,0,3.069,0L3.069,0z"/>
	<path fill="#FFFFFF" d="M3.2,43.353c-1.372,0-2.547-1.165-2.547-2.588V3.235c0-1.424,1.175-2.588,2.547-2.588h25.6
		c1.372,0,2.548,1.165,2.548,2.588v37.529c0,1.423-1.176,2.588-2.548,2.588H3.2z"/>
	<path fill="#ED0000" d="M6.596,12.941c-0.392,0-0.719-0.065-1.11-0.129c-0.327-0.064-0.653-0.194-0.849-0.259l0.261-0.971
		c0.261,0.129,0.522,0.194,0.784,0.259c0.261,0.065,0.588,0.129,0.915,0.129c0.587,0,1.045-0.259,1.437-0.776
		s0.522-1.165,0.522-1.941V8.865C8.294,9.124,7.641,9.641,6.661,9.641c-0.979,0-1.567-0.389-2.024-0.906
		C4.18,8.218,3.918,7.312,3.918,6.406c0-0.971,0.261-1.747,0.784-2.33c0.522-0.582,1.241-0.841,2.09-0.841s1.567,0.323,2.155,0.97
		c0.587,0.647,0.849,1.553,0.849,2.718v2.2c0,1.1-0.327,2.006-0.914,2.717C8.229,12.553,7.51,12.941,6.596,12.941z M6.727,8.67
		c0.392,0,1.241-0.129,1.829-1.036V6.794c0-0.776-0.196-1.424-0.522-1.876C7.706,4.464,7.249,4.206,6.792,4.206
		c-0.522,0-0.915,0.259-1.176,0.647C5.29,5.241,5.159,5.759,5.159,6.406c0,0.582,0.065,1.359,0.327,1.747
		C5.812,8.541,6.204,8.67,6.727,8.67z"/>
	<path fill="#ED0000" d="M21.42,19.412c4.311,0,6.662,3.688,6.662,8.023c0,5.824-3.331,9.9-7.772,11.647
		c-1.371,0.582-3.853,1.035-5.028,1.035l-0.196-1.1c4.702-0.777,8.033-4.142,8.882-8.283l-1.764,0.906
		c-0.718,0.388-1.241,0.518-1.828,0.518c-3.658,0-6.008-2.588-6.008-5.953C14.368,23.294,16.784,19.412,21.42,19.412L21.42,19.412z
		 M20.768,20.641c-1.959,0-2.743,2.394-2.743,4.4c0,2.718,1.502,5.111,3.918,5.111c0.915,0,1.633-0.258,2.156-0.582
		c0.13-0.841,0.13-1.618,0.13-2.265C24.294,24.264,23.51,20.641,20.768,20.641L20.768,20.641z"/>
	<polygon fill="#ED0000" points="6.857,14.882 5.029,17.276 2.612,19.088 5.029,20.899 6.857,23.294 8.686,20.899 11.102,19.088
		8.686,17.276 	"/>
</g>
</svg>
