<svg version="1.1" id="Layer_1" xmlns="http://www.w3.org/2000/svg" xmlns:xlink="http://www.w3.org/1999/xlink" x="0px" y="0px"
	 width="32px" height="44px" viewBox="0 0 32 44" enable-background="new 0 0 32 44" xml:space="preserve">
<g>
	<path fill="#383838" d="M3.069,0h25.927C30.629,0,32,1.359,32,3.041v37.917c0,1.683-1.371,3.041-3.069,3.041H3.069
		C1.372,43.999,0,42.641,0,40.958V3.041C0,1.359,1.372,0,3.069,0L3.069,0z"/>
	<path fill="#FFFFFF" d="M3.2,43.353c-1.372,0-2.547-1.165-2.547-2.588V3.235c0-1.424,1.175-2.588,2.547-2.588h25.6
		c1.372,0,2.548,1.165,2.548,2.588v37.529c0,1.423-1.176,2.588-2.548,2.588H3.2z"/>
	<path fill="#000000" d="M7.837,3.235h1.306v6.729c0,0.906-0.261,1.618-0.719,2.136c-0.457,0.582-1.11,0.841-1.894,0.841
		c-0.849,0-1.437-0.259-1.959-0.712c-0.457-0.453-0.653-0.906-0.653-1.876h1.241c0,0.647,0.196,1.553,1.437,1.553
		c0.979,0,1.306-0.971,1.306-1.553V3.235H7.837z"/>
	<path fill="#1A1A1A" d="M27.886,19.347c-0.719,0-1.306,0.194-1.763,0.583c-0.458,0.388-0.653,0.841-0.653,1.423v12.941
		c0,1.488-0.588,3.364-1.764,4.271c-1.24,1.035-1.371,1.553-3.396,1.553c-1.24,0-2.351-0.388-3.331-1.101
		c-0.914-0.711-1.371-1.423-1.371-2.265c0-0.646,0.196-1.164,0.522-1.552c0.327-0.453,0.849-0.647,1.502-0.647
		c0.457,0,0.849,0.129,1.241,0.388c0.522,0.324,0.783,0.777,0.783,1.294c0,0.389-0.13,0.842-0.457,1.295
		c-0.261,0.453-0.457,0.776-0.392,0.971c0.066,0.517,0.522,0.776,1.437,0.776c1.306,0,1.894-0.971,1.894-2.395V21.353
		c0-0.582-0.196-0.97-0.588-1.423c-0.458-0.388-1.045-0.583-1.698-0.583v-0.582h8.032V19.347z"/>
	<path fill="#231F20" d="M6.857,23.294h2.547L9.339,23.1c-2.417-0.194-2.286-3.494-2.286-3.494s0.262,1.747,2.09,1.747
		c1.959,0,1.959-1.941,1.959-1.941c0-1.359-1.306-1.941-1.959-1.941c-0.653,0-0.849,0.13-0.849,0.13
		c0.849-0.777,0.849-0.971,0.849-1.424c-0.065-1.1-1.306-1.941-2.286-1.941c-0.979,0-2.286,0.841-2.286,1.941
		c0,0.647,0,0.647,0.849,1.424c0,0-0.392-0.13-0.849-0.13c-0.653,0-1.959,0.583-1.959,1.941c0,0,0.131,1.941,1.959,1.941
		c1.959,0,2.09-1.812,2.09-1.812s0.065,3.235-2.286,3.494L4.31,23.294H6.857L6.857,23.294z"/>
</g>
</svg>
