<svg version="1.1" id="Layer_1" xmlns="http://www.w3.org/2000/svg" xmlns:xlink="http://www.w3.org/1999/xlink" x="0px" y="0px"
	 width="32px" height="44px" viewBox="0 0 32 44" enable-background="new 0 0 32 44" xml:space="preserve">
<g>
	<path fill="#383838" d="M3.069,0h25.927C30.629,0,32,1.359,32,3.041v37.918C32,42.642,30.629,44,28.931,44H3.069
		C1.372,44,0,42.642,0,40.959V3.041C0,1.359,1.372,0,3.069,0L3.069,0z"/>
	<path fill="#FFFFFF" d="M3.2,43.353c-1.372,0-2.547-1.164-2.547-2.588V3.235c0-1.424,1.175-2.588,2.547-2.588h25.6
		c1.372,0,2.547,1.165,2.547,2.588v37.529c0,1.424-1.175,2.588-2.547,2.588H3.2z"/>
	<path fill="#ED0000" d="M7.837,3.235h1.306v6.729c0,0.906-0.261,1.618-0.719,2.136c-0.457,0.582-1.11,0.841-1.894,0.841
		c-0.849,0-1.437-0.259-1.959-0.711c-0.457-0.453-0.653-0.906-0.653-1.876h1.241c0,0.647,0.196,1.553,1.437,1.553
		c0.979,0,1.306-0.971,1.306-1.553V3.235H7.837z"/>
	<path fill="#ED0000" d="M27.886,19.347c-0.719,0-1.306,0.194-1.763,0.582c-0.458,0.388-0.653,0.841-0.653,1.424v12.941
		c0,1.488-0.588,3.365-1.764,4.271c-1.24,1.035-1.371,1.553-3.396,1.553c-1.24,0-2.351-0.388-3.331-1.1
		c-0.914-0.712-1.371-1.424-1.371-2.265c0-0.647,0.196-1.165,0.522-1.553c0.327-0.453,0.849-0.647,1.502-0.647
		c0.457,0,0.849,0.129,1.241,0.389c0.522,0.323,0.783,0.776,0.783,1.294c0,0.388-0.13,0.841-0.457,1.294
		c-0.261,0.453-0.457,0.776-0.392,0.971c0.066,0.518,0.522,0.776,1.437,0.776c1.306,0,1.894-0.971,1.894-2.395V21.353
		c0-0.583-0.196-0.971-0.588-1.424c-0.458-0.388-1.045-0.582-1.698-0.582v-0.583h8.032V19.347z"/>
	<path fill="#ED0000" d="M10.71,15.659c-0.588-0.453-1.176-0.776-1.567-0.776c-0.392,0-1.437-0.065-2.286,1.359
		c-0.849-1.424-1.829-1.294-2.221-1.294c-0.392,0-1.045,0.323-1.567,0.776c-0.522,0.518-0.457,1.359-0.261,1.812
		c0.196,0.453,4.049,5.112,4.049,5.112s3.918-4.723,4.114-5.176C11.167,17.018,11.233,16.176,10.71,15.659L10.71,15.659z"/>
</g>
</svg>
