<svg xmlns="http://www.w3.org/2000/svg" xmlns:xlink="http://www.w3.org/1999/xlink" version="1.1" id="Layer_1" x="0px" y="0px" width="32px" height="44px" viewBox="0 0 32 44" enable-background="new 0 0 32 44" xml:space="preserve">
<g>
	<path fill="#383838" d="M3.069,0h25.927C30.629,0,32,1.359,32,3.041v37.917C32,42.641,30.629,44,28.931,44H3.069   C1.372,44,0,42.641,0,40.958V3.041C0,1.359,1.372,0,3.069,0L3.069,0z"/>
	<path fill="#FFFFFF" d="M3.2,43.353c-1.372,0-2.547-1.165-2.547-2.588V3.235c0-1.424,1.175-2.588,2.547-2.588h25.6   c1.372,0,2.547,1.165,2.547,2.588v37.529c0,1.423-1.175,2.588-2.547,2.588H3.2z"/>
	<path fill="#1A1A1A" d="M6.922,23.294h2.743L9.6,23.035c-1.176-0.064-1.567-0.452-2.09-0.97c-0.522-0.582-0.457-2.135-0.457-2.135 c0.915,1.165,1.502,1.488,1.894,1.488c0.718,0,1.371-0.194,1.894-0.971s0.196-1.941-1.632-3.17C7.379,16.047,6.792,14.3,6.792,14.3 s-0.588,1.747-2.417,2.977s-2.155,2.394-1.632,3.17c0.587,0.712,1.306,0.906,2.024,0.906c0.458,0,0.98-0.323,1.895-1.488 c0,0,0.065,1.553-0.458,2.135c-0.522,0.583-0.914,0.906-2.09,0.971l-0.065,0.324H6.922L6.922,23.294z"/>
	<path fill="#000000" d="M5.877,8.412H5.225v4.529H3.918V3.235h1.306v3.882h0.653L8.49,3.235h1.306L6.792,7.7l3.657,5.241H8.947L5.877,8.412z"/>
	<path fill="#1A1A1A" d="M24.294,40.117c-1.372-2.2-3.331-5.694-5.224-9.059c-0.522-0.906-0.849-1.1-1.241-1.035v5.888   c0,2.718,0.261,2.977,2.09,3.171v1.035h-6.792v-1.035c1.763-0.194,2.025-0.453,2.025-3.171V23.617c0-2.782-0.196-2.977-2.09-3.17   v-1.035h6.792v1.035c-1.764,0.194-1.959,0.388-1.959,3.17v5.5c0.522-0.194,1.11-0.647,1.763-1.618   c1.502-2.005,2.743-3.818,3.592-5.306c0.653-1.035,0.588-1.488-0.522-1.682l-0.457-0.065v-1.035h6.074v1.035   c-1.568,0.194-2.417,0.518-3.854,2.265c-1.241,1.553-2.481,3.3-3.788,5.047c1.633,3.041,3.723,6.535,5.225,8.993   c1.11,1.748,1.698,2.136,2.743,2.33v1.035H24.294z"/>
</g>
</svg>
