<svg version="1.1" id="Layer_1" xmlns="http://www.w3.org/2000/svg" xmlns:xlink="http://www.w3.org/1999/xlink" x="0px" y="0px"
	 width="32px" height="44px" viewBox="0 0 32 44" enable-background="new 0 0 32 44" xml:space="preserve">
<g>
	<path fill="#383838" d="M3.069,0h25.927C30.629,0,32,1.359,32,3.042v37.917C32,42.642,30.629,44,28.931,44H3.069
		C1.372,44,0,42.642,0,40.959V3.042C0,1.359,1.372,0,3.069,0L3.069,0z"/>
	<path fill="#FFFFFF" d="M3.2,43.354c-1.372,0-2.547-1.165-2.547-2.589V3.235c0-1.424,1.175-2.588,2.547-2.588h25.6
		c1.372,0,2.548,1.165,2.548,2.588v37.529c0,1.424-1.176,2.589-2.548,2.589H3.2z"/>
	<path fill="#231F20" d="M9.796,9.447c0,0.453-0.065,0.841-0.196,1.229c-0.131,0.388-0.261,0.647-0.457,0.97l1.306,1.294
		l-1.045,0.647l-1.11-1.229c-0.261,0.129-0.522,0.324-0.849,0.389c-0.261,0.064-0.588,0.194-0.979,0.194
		c-0.979,0-1.763-0.324-2.351-0.906c-0.588-0.647-0.849-1.489-0.849-2.588V6.729c0-1.1,0.261-1.941,0.849-2.588
		c0.588-0.582,1.372-0.906,2.351-0.906s1.829,0.324,2.417,0.906C9.469,4.724,9.796,5.63,9.796,6.729V9.447z M8.49,6.6
		c0-0.776-0.196-1.229-0.522-1.618C7.641,4.594,7.118,4.335,6.465,4.335c-0.653,0-1.11,0.194-1.437,0.647
		C4.702,5.371,4.571,5.824,4.571,6.6v2.847c0,0.841,0.196,1.423,0.522,1.812s0.849,0.647,1.437,0.647
		c0.653,0,1.11-0.194,1.502-0.647c0.326-0.388,0.522-1.035,0.522-1.876V6.6H8.49z"/>
	<path fill="#1A1A1A" d="M26.775,40.765c-1.306,0-2.547-0.064-3.33-0.323c-0.719-0.259-0.196,0.388-2.939-2.329
		c-1.306-0.065-3.396-0.971-4.702-2.718c-1.306-1.683-2.09-4.076-2.09-6.665c0-5.177,2.743-9.965,7.706-9.965
		c3.918,0,7.315,3.818,7.315,9.447c0,4.853-2.286,8.218-4.963,9.253c1.436,1.295,1.241,1.359,3.003,2.459V40.765z M22.335,36.235
		c0.196,0.194,0.392,0.324,0.587,0.518c1.306-0.582,2.743-3.041,2.743-7.635c0-5.759-1.959-9.188-4.767-9.188
		c-2.481,0-4.245,3.235-4.245,8.023c0,4.594,1.567,8.153,3.983,8.93L22.335,36.235z"/>
	<path fill="#231F20" d="M6.857,23.294h2.547L9.339,23.1c-2.417-0.194-2.286-3.494-2.286-3.494s0.262,1.747,2.09,1.747
		c1.959,0,1.959-1.941,1.959-1.941c0-1.359-1.306-1.941-1.959-1.941c-0.653,0-0.849,0.129-0.849,0.129
		c0.849-0.776,0.849-0.97,0.849-1.423c-0.065-1.1-1.306-1.941-2.286-1.941c-0.979,0-2.286,0.841-2.286,1.941
		c0,0.647,0,0.647,0.849,1.423c0,0-0.392-0.129-0.849-0.129c-0.653,0-1.959,0.583-1.959,1.941c0,0,0.131,1.941,1.959,1.941
		c1.959,0,2.09-1.812,2.09-1.812s0.065,3.235-2.286,3.494L4.31,23.294H6.857L6.857,23.294z"/>
</g>
</svg>
