<svg version="1.1" id="Layer_1" xmlns="http://www.w3.org/2000/svg" xmlns:xlink="http://www.w3.org/1999/xlink" x="0px" y="0px"
	 width="32px" height="44px" viewBox="0 0 32 44" enable-background="new 0 0 32 44" xml:space="preserve">
<g>
	<path fill="#383838" d="M3.069,0h25.927C30.629,0,32,1.359,32,3.042v37.917C32,42.642,30.629,44,28.931,44H3.069
		C1.372,44,0,42.642,0,40.959V3.042C0,1.359,1.372,0,3.069,0L3.069,0z"/>
	<path fill="#FFFFFF" d="M3.2,43.354c-1.372,0-2.547-1.165-2.547-2.589V3.235c0-1.424,1.175-2.588,2.547-2.588h25.6
		c1.372,0,2.547,1.165,2.547,2.588v37.529c0,1.424-1.175,2.589-2.547,2.589H3.2z"/>
	<path fill="#ED0000" d="M5.225,12.941H3.918V5.177H2.612V4.529l2.612-1.294V12.941z"/>
	<path fill="#ED0000" d="M11.755,9.447c0,1.035-0.261,1.941-0.719,2.523c-0.457,0.647-1.11,0.906-1.894,0.906
		s-1.437-0.323-1.894-0.906c-0.457-0.647-0.718-1.488-0.718-2.523V6.665c0-1.035,0.261-1.876,0.718-2.523
		c0.457-0.582,1.11-0.906,1.894-0.906s1.437,0.324,1.894,0.971c0.458,0.647,0.719,1.488,0.719,2.523V9.447z M10.449,6.471
		c0-0.647,0.065-1.229-0.196-1.618C9.992,4.465,9.6,4.271,9.143,4.271c-0.458,0-0.849,0.194-1.11,0.582S7.837,5.824,7.837,6.471
		v3.235c0,0.647-0.065,1.229,0.196,1.618s0.653,0.582,1.11,0.582c0.457,0,0.849-0.194,1.11-0.582
		c0.261-0.388,0.196-0.971,0.196-1.618V6.471z"/>
	<path fill="#ED0000" d="M11.755,40.118v-0.647c1.632,0,1.959-0.259,1.959-2.588V23.941c-0.522,0-1.959,0-1.959,0v-0.647
		c1.828-0.324,3.461-1.553,4.506-3.882h0.718v17.471c0,2.265,0.327,2.652,1.959,2.652v0.583H11.755z"/>
	<path fill="#ED0000" d="M23.902,19.412L23.902,19.412c-4.179,0-5.616,5.629-5.616,10.353c0,4.789,1.372,10.353,5.551,10.353
		s5.551-5.694,5.551-10.353C29.388,25.042,28.017,19.412,23.902,19.412z M25.47,36.947c0,0.776-0.718,1.424-1.633,1.424
		s-1.633-0.647-1.633-1.424V22.583c0-0.777,0.718-1.424,1.633-1.424s1.633,0.647,1.633,1.424V36.947z"/>
	<path fill="#ED0000" d="M10.71,15.659c-0.588-0.453-1.176-0.777-1.567-0.777c-0.392,0-1.437-0.064-2.286,1.359
		c-0.849-1.423-1.829-1.294-2.221-1.294c-0.392,0-1.045,0.324-1.567,0.776c-0.522,0.518-0.457,1.359-0.261,1.812
		c0.196,0.453,4.049,5.112,4.049,5.112s3.918-4.724,4.114-5.177C11.167,17.018,11.233,16.177,10.71,15.659L10.71,15.659z"/>
</g>
</svg>
