<svg version="1.1" id="Layer_1" xmlns="http://www.w3.org/2000/svg" xmlns:xlink="http://www.w3.org/1999/xlink" x="0px" y="0px"
	 width="32px" height="44px" viewBox="0 0 32 44" enable-background="new 0 0 32 44" xml:space="preserve">
<g>
	<path fill="#383838" d="M3.069,0h25.927C30.629,0,32,1.359,32,3.042v37.917C32,42.642,30.629,44,28.931,44H3.069
		C1.372,44,0,42.642,0,40.959V3.042C0,1.359,1.372,0,3.069,0L3.069,0z"/>
	<path fill="#FFFFFF" d="M3.2,43.354c-1.372,0-2.547-1.165-2.547-2.589V3.235c0-1.424,1.175-2.588,2.547-2.588h25.6
		c1.372,0,2.548,1.165,2.548,2.588v37.529c0,1.424-1.176,2.589-2.548,2.589H3.2z"/>
	<path fill="#000000" d="M9.143,12.941h1.306L7.51,3.235H6.204l-2.939,9.706h1.306L5.159,11h3.461L9.143,12.941z M5.551,9.706l1.306-4.53h0.065
		l1.306,4.53H5.551z"/>
	<path fill="#1A1A1A" d="M21.551,40.118v-0.971c1.567-0.259,1.763-0.647,1.371-1.941c-0.327-1.035-0.718-2.459-1.24-4.012h-5.291
		c-0.326,1.165-0.718,2.33-1.044,3.559c-0.458,1.683-0.327,2.071,1.632,2.395v0.971h-5.877v-0.971
		c1.698-0.259,2.09-0.583,3.004-3.235l5.42-16.112l1.175-0.388c1.698,5.436,3.396,11,5.094,16.37
		c0.85,2.718,1.241,3.106,2.939,3.301v1.035H21.551z M19.135,24.524H19.07c-0.784,2.394-1.502,4.853-2.221,7.182h4.44
		L19.135,24.524z"/>
	<path fill="#231F20" d="M6.857,23.294h2.547L9.339,23.1c-2.417-0.194-2.286-3.494-2.286-3.494s0.262,1.747,2.09,1.747
		c1.959,0,1.959-1.941,1.959-1.941c0-1.359-1.306-1.941-1.959-1.941c-0.653,0-0.849,0.129-0.849,0.129
		c0.849-0.776,0.849-0.97,0.849-1.423c-0.065-1.1-1.306-1.941-2.286-1.941c-0.979,0-2.286,0.841-2.286,1.941
		c0,0.647,0,0.647,0.849,1.423c0,0-0.392-0.129-0.849-0.129c-0.653,0-1.959,0.583-1.959,1.941c0,0,0.131,1.941,1.959,1.941
		c1.959,0,2.09-1.812,2.09-1.812s0.065,3.235-2.286,3.494L4.31,23.294H6.857L6.857,23.294z"/>
</g>
</svg>
