<svg version="1.1" id="Layer_1" xmlns="http://www.w3.org/2000/svg" xmlns:xlink="http://www.w3.org/1999/xlink" x="0px" y="0px"
	 width="32px" height="44px" viewBox="0 0 32 44" enable-background="new 0 0 32 44" xml:space="preserve">
<g>
	<path fill="#383838" d="M3.069,0h25.927C30.629,0,32,1.359,32,3.041v37.918C32,42.642,30.629,44,28.931,44H3.069
		C1.372,44,0,42.642,0,40.959V3.041C0,1.359,1.372,0,3.069,0L3.069,0z"/>
	<path fill="#FFFFFF" d="M3.2,43.353c-1.371,0-2.547-1.164-2.547-2.588V3.235c0-1.424,1.176-2.588,2.547-2.588h25.6
		c1.371,0,2.547,1.165,2.547,2.588v37.529c0,1.424-1.176,2.588-2.547,2.588H3.2z"/>
	<path fill="#ED0000" d="M9.143,12.941h1.306L7.51,3.235H6.204l-2.939,9.706h1.306L5.159,11h3.461L9.143,12.941z M5.551,9.706
		l1.306-4.53h0.065l1.306,4.53H5.551z"/>
	<path fill="#ED0000" d="M21.551,40.117v-0.97c1.568-0.26,1.764-0.647,1.371-1.941c-0.326-1.035-0.718-2.459-1.24-4.012h-5.29
		c-0.326,1.165-0.718,2.33-1.045,3.559c-0.457,1.683-0.326,2.07,1.633,2.395v0.97h-5.877v-0.97c1.698-0.26,2.09-0.583,3.004-3.235
		L19.527,19.8l1.175-0.388c1.698,5.436,3.396,11,5.094,16.371c0.849,2.718,1.241,3.105,2.938,3.301v1.034H21.551z M19.134,24.524
		h-0.065c-0.784,2.394-1.502,4.853-2.221,7.182h4.441L19.134,24.524z"/>
	<polygon fill="#ED0000" points="6.857,14.882 5.029,17.276 2.612,19.088 5.029,20.9 6.857,23.294 8.686,20.9 11.102,19.088
		8.686,17.276 	"/>
</g>
</svg>
