<svg version="1.1" id="Layer_1" xmlns="http://www.w3.org/2000/svg" xmlns:xlink="http://www.w3.org/1999/xlink" x="0px" y="0px"
	 width="32px" height="44px" viewBox="0 0 32 44" enable-background="new 0 0 32 44" xml:space="preserve">
<g>
	<path fill="#383838" d="M3.069,0h25.927C30.629,0,32,1.359,32,3.041v37.917c0,1.683-1.371,3.041-3.069,3.041H3.069
		C1.372,43.999,0,42.641,0,40.958V3.041C0,1.359,1.372,0,3.069,0L3.069,0z"/>
	<path fill="#FFFFFF" d="M3.2,43.353c-1.371,0-2.547-1.165-2.547-2.588V3.235c0-1.424,1.176-2.588,2.547-2.588h25.6
		c1.372,0,2.548,1.165,2.548,2.588v37.529c0,1.423-1.176,2.588-2.548,2.588H3.2z"/>
	<path fill="#ED0000" d="M9.143,12.941h1.306L7.51,3.235H6.204l-2.939,9.706h1.306L5.159,11h3.461L9.143,12.941z M5.551,9.706
		l1.306-4.529h0.065l1.306,4.529H5.551z"/>
	<path fill="#ED0000" d="M21.551,40.117v-0.971c1.567-0.259,1.763-0.646,1.371-1.941c-0.327-1.035-0.718-2.458-1.24-4.012h-5.291
		c-0.326,1.165-0.718,2.33-1.044,3.559c-0.458,1.684-0.327,2.071,1.632,2.395v0.971h-5.877v-0.971
		c1.698-0.259,2.09-0.582,3.004-3.235l5.42-16.111l1.175-0.388c1.698,5.436,3.396,11,5.094,16.371
		c0.85,2.718,1.241,3.105,2.939,3.3v1.035H21.551z M19.135,24.523H19.07c-0.784,2.394-1.502,4.853-2.221,7.182h4.44L19.135,24.523z
		"/>
	<path fill="#ED0000" d="M10.71,15.659c-0.587-0.453-1.175-0.776-1.567-0.776c-0.392,0-1.437-0.065-2.286,1.359
		c-0.849-1.424-1.828-1.294-2.22-1.294s-1.045,0.324-1.567,0.776c-0.522,0.518-0.457,1.359-0.261,1.812
		c0.196,0.453,4.049,5.112,4.049,5.112s3.918-4.724,4.114-5.177C11.167,17.017,11.233,16.176,10.71,15.659L10.71,15.659z"/>
</g>
</svg>
