<svg version="1.1" id="Layer_1" xmlns="http://www.w3.org/2000/svg" xmlns:xlink="http://www.w3.org/1999/xlink" x="0px" y="0px"
	 width="32px" height="44px" viewBox="0 0 32 44" enable-background="new 0 0 32 44" xml:space="preserve">
<g>
	<path fill="#383838" d="M3.069,0h25.927C30.629,0,32,1.359,32,3.042v37.917C32,42.642,30.629,44,28.931,44H3.069
		C1.372,44,0,42.642,0,40.959V3.042C0,1.359,1.372,0,3.069,0L3.069,0z"/>
	<path fill="#FFFFFF" d="M3.2,43.354c-1.372,0-2.547-1.165-2.547-2.589V3.235c0-1.424,1.175-2.588,2.547-2.588h25.6
		c1.372,0,2.548,1.165,2.548,2.588v37.529c0,1.424-1.176,2.589-2.548,2.589H3.2z"/>
	<path fill="#ED0000" d="M6.857,7.441c0.587,0,0.979-0.13,1.175-0.453c0.261-0.259,0.327-0.647,0.327-1.165
		c0-0.453-0.131-0.841-0.392-1.165c-0.262-0.324-0.653-0.453-1.11-0.453c-0.458,0-0.915,0.129-1.176,0.453
		C5.355,4.982,5.225,5.371,5.225,5.824H3.918c0-0.712,0.327-1.359,0.849-1.812c0.588-0.518,1.241-0.776,2.09-0.776
		c0.849,0,1.567,0.194,2.024,0.647C9.404,4.335,9.6,4.982,9.6,5.824c0,0.453-0.131,0.841-0.327,1.229
		C9.078,7.441,8.751,7.7,8.294,7.895c0.457,0.194,0.849,0.453,1.045,0.841C9.6,9.124,9.73,9.576,9.73,10.159
		c0,0.841-0.261,1.553-0.783,2.005c-0.523,0.518-1.241,0.712-2.09,0.712c-0.784,0-1.502-0.259-2.09-0.712
		c-0.587-0.453-0.849-1.035-0.849-1.812h1.306c0,0.453,0.065,0.776,0.392,1.1c0.327,0.324,0.719,0.453,1.241,0.453
		c0.522,0,0.914-0.129,1.175-0.453c0.327-0.324,0.457-0.712,0.457-1.229c0-0.583-0.13-1.035-0.392-1.359
		C7.837,8.606,7.771,8.412,7.184,8.412H5.877V7.118L6.857,7.441z"/>
	<path fill="#ED0000" d="M23.772,27.63c3.2,0.518,4.963,2.588,4.963,4.982c0,5.177-7.119,7.506-9.339,7.506
		c-1.698,0-3.069-0.583-3.657-1.035c-0.522-0.389-0.718-0.842-0.718-1.229c0.065-0.518,0.522-1.035,0.979-1.294
		c0.327-0.26,0.718-0.324,1.11,0c0.849,0.646,2.351,1.876,4.31,1.876c1.959,0,3.461-1.423,3.461-4.529
		c0-2.977-2.351-4.141-4.179-4.141c-0.653,0-1.437,0.129-1.959,0.259l-0.262-1.036c2.939-0.905,5.094-2.2,5.094-4.335
		c0-2.005-1.371-2.912-3.003-2.912c-1.764,0-3.004,1.1-4.049,2.459l-0.849-0.712l1.632-2.07c0.979-0.971,2.547-1.941,4.637-1.941
		h0.065c3.396,0,5.42,1.812,5.42,4.271c0,0.841-0.392,1.618-1.045,2.2c-0.588,0.453-1.371,0.97-2.482,1.618v0.065H23.772z"/>
	<path fill="#ED0000" d="M10.71,15.659c-0.588-0.453-1.176-0.777-1.567-0.777c-0.392,0-1.437-0.064-2.286,1.359
		c-0.849-1.423-1.829-1.294-2.221-1.294c-0.392,0-1.045,0.324-1.567,0.776c-0.522,0.518-0.457,1.359-0.261,1.812
		c0.196,0.453,4.049,5.112,4.049,5.112s3.918-4.724,4.114-5.177C11.167,17.018,11.233,16.177,10.71,15.659L10.71,15.659z"/>
</g>
</svg>
