<svg version="1.1" id="Layer_1" xmlns="http://www.w3.org/2000/svg" xmlns:xlink="http://www.w3.org/1999/xlink" x="0px" y="0px"
	 width="32px" height="44px" viewBox="0 0 32 44" enable-background="new 0 0 32 44" xml:space="preserve">
<g>
	<path fill="#383838" d="M3.069,0h25.927C30.629,0,32,1.359,32,3.042v37.917C32,42.642,30.629,44,28.931,44H3.069
		C1.372,44,0,42.642,0,40.959V3.042C0,1.359,1.372,0,3.069,0L3.069,0z"/>
	<path fill="#FFFFFF" d="M3.2,43.354c-1.372,0-2.547-1.165-2.547-2.589V3.235c0-1.424,1.175-2.588,2.547-2.588h25.6
		c1.372,0,2.547,1.165,2.547,2.588v37.529c0,1.424-1.175,2.589-2.547,2.589H3.2z"/>
	<path fill="#000000" d="M8.49,9.706h1.306V11H8.49v1.941H7.184V11H3.265V9.965l3.918-6.729H8.49V9.706z M4.571,9.706h2.612V5.177L4.571,9.706z"/>
	<path fill="#1A1A1A" d="M25.47,34.941v1.294c0,2.071,0.326,2.653,2.611,2.848v1.035h-8.489v-1.035
		c2.547-0.259,2.612-0.776,2.612-2.848v-1.294h-7.837v-1.165l9.143-14.365h1.959V33h2.611v1.941H25.47z M22.204,23.941
		L22.204,23.941C20.571,26.4,16.326,33,16.326,33h5.878V23.941z"/>
	<path fill="#231F20" d="M6.857,23.294h2.547L9.338,23.1c-2.416-0.194-2.286-3.494-2.286-3.494s0.262,1.747,2.09,1.747
		c1.959,0,1.959-1.941,1.959-1.941c0-1.359-1.306-1.941-1.959-1.941c-0.653,0-0.849,0.129-0.849,0.129
		c0.849-0.776,0.849-0.97,0.849-1.423c-0.065-1.1-1.306-1.941-2.286-1.941s-2.286,0.841-2.286,1.941c0,0.647,0,0.647,0.849,1.423
		c0,0-0.392-0.129-0.849-0.129c-0.653,0-1.959,0.583-1.959,1.941c0,0,0.13,1.941,1.959,1.941c1.959,0,2.09-1.812,2.09-1.812
		s0.065,3.235-2.286,3.494L4.31,23.294H6.857L6.857,23.294z"/>
</g>
</svg>
