<svg version="1.1" id="Layer_1" xmlns="http://www.w3.org/2000/svg" xmlns:xlink="http://www.w3.org/1999/xlink" x="0px" y="0px"
	 width="32px" height="44px" viewBox="0 0 32 44" enable-background="new 0 0 32 44" xml:space="preserve">
<g>
	<path fill="#383838" d="M3.069,0h25.927C30.629,0,32,1.359,32,3.041v37.918C32,42.642,30.629,44,28.931,44H3.069
		C1.372,44,0,42.642,0,40.959V3.041C0,1.359,1.372,0,3.069,0L3.069,0z"/>
	<path fill="#FFFFFF" d="M3.2,43.353c-1.372,0-2.547-1.164-2.547-2.588V3.235c0-1.424,1.175-2.588,2.547-2.588h25.6
		c1.372,0,2.548,1.165,2.548,2.588v37.529c0,1.424-1.176,2.588-2.548,2.588H3.2z"/>
	<path fill="#ED0000" d="M8.49,9.706h1.306V11H8.49v1.941H7.184V11H3.265V9.964l3.918-6.729H8.49V9.706z M4.571,9.706h2.612v-4.53
		L4.571,9.706z"/>
	<path fill="#ED0000" d="M25.47,34.941v1.294c0,2.07,0.326,2.652,2.612,2.848v1.034h-8.49v-1.034
		c2.547-0.26,2.612-0.777,2.612-2.848v-1.294h-7.836v-1.165l9.143-14.365h1.959V33h2.612v1.941H25.47z M22.204,23.941
		L22.204,23.941C20.572,26.4,16.327,33,16.327,33h5.877V23.941z"/>
	<polygon fill="#ED0000" points="6.857,14.882 5.029,17.276 2.612,19.088 5.029,20.9 6.857,23.294 8.686,20.9 11.102,19.088
		8.686,17.276 	"/>
</g>
</svg>
