<svg version="1.1" id="Layer_1" xmlns="http://www.w3.org/2000/svg" xmlns:xlink="http://www.w3.org/1999/xlink" x="0px" y="0px"
	 width="32px" height="44px" viewBox="0 0 32 44" enable-background="new 0 0 32 44" xml:space="preserve">
<g>
	<path fill="#383838" d="M3.069,0h25.927C30.629,0,32,1.359,32,3.042v37.917C32,42.642,30.629,44,28.931,44H3.069
		C1.372,44,0,42.642,0,40.959V3.042C0,1.359,1.372,0,3.069,0L3.069,0z"/>
	<path fill="#FFFFFF" d="M3.2,43.354c-1.372,0-2.547-1.165-2.547-2.589V3.235c0-1.424,1.175-2.588,2.547-2.588h25.6
		c1.371,0,2.547,1.165,2.547,2.588v37.529c0,1.424-1.176,2.589-2.547,2.589H3.2z"/>
	<path fill="#000000" d="M3.918,8.412l0.653-5.177h5.225v1.294H5.877L5.225,7.118C5.42,6.988,5.943,6.471,6.857,6.471
		c0.915,0,1.698,0.388,2.155,0.971C9.535,8.023,9.796,8.8,9.796,9.771c0,0.97-0.261,1.747-0.784,2.329s-1.306,0.906-2.286,0.906
		c-0.849,0-1.502-0.194-2.024-0.647C4.18,11.841,3.918,11,3.918,10.353h1.241c0,0.518,0.131,0.841,0.457,1.165
		c0.327,0.259,0.719,0.453,1.176,0.453c0.522,0,0.979-0.194,1.306-0.582C8.424,11,8.621,10.418,8.621,9.771
		c0-0.583-0.131-1.165-0.458-1.553C7.837,7.83,7.379,7.635,6.792,7.635c-0.522,0-0.915,0.129-1.11,0.259
		C5.42,8.023,5.355,8.153,5.159,8.412H3.918z"/>
	<path fill="#1A1A1A" d="M17.175,27.888c1.567-0.582,3.265-1.035,4.18-1.035c4.375,0,6.726,2.718,6.726,5.5
		c0,2.006-1.044,3.882-3.265,5.5c-1.894,1.358-4.245,2.2-6.204,2.265c-1.437,0-2.874-0.583-3.527-1.101
		c-0.587-0.518-0.784-0.841-0.718-1.229c0-0.453,0.458-1.101,0.979-1.489c0.392-0.258,0.719-0.193,1.11,0.13
		c0.784,0.712,2.286,1.877,4.31,1.877c2.352,0,3.527-2.007,3.527-4.4c0-2.912-1.894-4.918-5.225-4.918
		c-1.502,0-2.874,0.389-3.657,0.647l1.502-10.223h10.383l0.195,0.323l-1.044,2.782H18.09L17.175,27.888z"/>
	<path fill="#231F20" d="M6.857,23.294h2.547L9.338,23.1c-2.416-0.194-2.286-3.494-2.286-3.494s0.262,1.747,2.09,1.747
		c1.959,0,1.959-1.941,1.959-1.941c0-1.359-1.306-1.941-1.959-1.941c-0.653,0-0.849,0.129-0.849,0.129
		c0.849-0.776,0.849-0.97,0.849-1.423c-0.065-1.1-1.306-1.941-2.286-1.941c-0.979,0-2.286,0.841-2.286,1.941
		c0,0.647,0,0.647,0.849,1.423c0,0-0.392-0.129-0.849-0.129c-0.653,0-1.959,0.583-1.959,1.941c0,0,0.131,1.941,1.959,1.941
		c1.959,0,2.09-1.812,2.09-1.812s0.065,3.235-2.286,3.494L4.31,23.294H6.857L6.857,23.294z"/>
</g>
</svg>
