<svg xmlns="http://www.w3.org/2000/svg" xmlns:xlink="http://www.w3.org/1999/xlink" version="1.1" id="Layer_1" x="0px" y="0px" width="32px" height="44px" viewBox="0 0 32 44" enable-background="new 0 0 32 44" xml:space="preserve">
<g>
	<path fill="#383838" d="M3.07,0h25.926C30.629,0,32,1.359,32,3.042v37.917c0,1.683-1.371,3.041-3.069,3.041H3.07   c-1.698,0-3.07-1.358-3.07-3.041V3.042C0,1.359,1.372,0,3.07,0L3.07,0z"/>
	<path fill="#FFFFFF" d="M3.2,43.353c-1.372,0-2.547-1.165-2.547-2.588V3.235c0-1.424,1.175-2.588,2.547-2.588h25.6   c1.372,0,2.547,1.165,2.547,2.588v37.529c0,1.423-1.175,2.588-2.547,2.588H3.2z"/>
	<path fill="#1A1A1A" d="M6.923,23.294h2.743L9.6,23.035c-1.176-0.064-1.567-0.452-2.09-0.97c-0.522-0.582-0.457-2.135-0.457-2.135 c0.915,1.165,1.502,1.488,1.894,1.488c0.718,0,1.371-0.194,1.894-0.971s0.196-1.941-1.632-3.17C7.379,16.047,6.792,14.3,6.792,14.3 s-0.588,1.747-2.416,2.977c-1.829,1.229-2.155,2.394-1.633,3.17c0.587,0.712,1.306,0.906,2.024,0.906 c0.457,0,0.979-0.323,1.894-1.488c0,0,0.065,1.553-0.458,2.135c-0.522,0.583-0.914,0.906-2.09,0.971l-0.065,0.324H6.923 L6.923,23.294z"/>
	<path fill="#000000" d="M7.119,3.235c0.392,0,0.718,0.064,1.11,0.129c0.327,0.064,0.653,0.194,0.849,0.259L8.816,4.594   C8.555,4.464,8.294,4.4,8.033,4.335C7.771,4.271,7.445,4.206,7.119,4.206c-0.588,0-1.045,0.258-1.437,0.776   C5.29,5.5,5.159,6.147,5.159,6.923v0.388C5.42,7.053,6.073,6.535,7.053,6.535c0.979,0,1.567,0.388,2.024,0.906   s0.718,1.488,0.718,2.33c0,0.971-0.261,1.747-0.784,2.33c-0.522,0.582-1.241,0.841-2.089,0.841c-0.85,0-1.567-0.323-2.155-0.971   c-0.588-0.711-0.849-1.617-0.849-2.717v-2.2c0-1.1,0.327-2.006,0.914-2.717C5.486,3.624,6.204,3.235,7.119,3.235z M6.988,7.506   c-0.392,0-1.241,0.129-1.829,1.035v0.841c0,0.776,0.196,1.423,0.522,1.876c0.327,0.453,0.784,0.711,1.241,0.711   c0.522,0,0.914-0.194,1.175-0.582S8.49,10.482,8.49,9.835c0-0.583-0.065-1.359-0.326-1.747C7.902,7.635,7.51,7.506,6.988,7.506z"/>
	<path fill="#1A1A1A" d="M20.31,27.694c0.784-0.324,1.372-0.582,1.894-0.582c3.527,0,5.878,2.458,5.878,5.888   c0,3.947-2.874,7.118-6.857,7.118c-3.854,0-6.857-3.041-6.857-8.024c0-6.794,4.767-10.417,8.294-11.646   c1.306-0.453,3.2-0.841,4.441-1.035l0.195,1.165c-0.979,0.194-2.285,0.583-3.396,1.1c-1.698,0.841-4.44,2.718-5.354,6.858   L20.31,27.694z M20.702,29.182c-0.915,0-1.632,0.195-2.351,0.518c-0.13,0.582-0.196,1.618-0.196,2.394   c0,4.077,1.632,6.73,3.657,6.73c2.089,0,2.677-2.524,2.677-4.594C24.49,31.446,23.053,29.182,20.702,29.182L20.702,29.182z"/>
</g>
</svg>
