<svg version="1.1" id="Layer_1" xmlns="http://www.w3.org/2000/svg" xmlns:xlink="http://www.w3.org/1999/xlink" x="0px" y="0px"
	 width="32px" height="44px" viewBox="0 0 32 44" enable-background="new 0 0 32 44" xml:space="preserve">
<g>
	<path fill="#383838" d="M3.069,0h25.927C30.629,0,32,1.359,32,3.041v37.918C32,42.642,30.629,44,28.931,44H3.069
		C1.372,44,0,42.642,0,40.959V3.041C0,1.359,1.372,0,3.069,0L3.069,0z"/>
	<path fill="#FFFFFF" d="M3.2,43.353c-1.372,0-2.547-1.164-2.547-2.588V3.235c0-1.424,1.175-2.588,2.547-2.588h25.6
		c1.372,0,2.547,1.165,2.547,2.588v37.529c0,1.424-1.175,2.588-2.547,2.588H3.2z"/>
	<path fill="#000000" d="M9.796,4.464C8.555,5.953,7.902,6.924,7.445,8.088c-0.457,1.1-0.261,2.2-0.261,3.559v1.294H5.877v-1.294
		c0-1.488,0.065-2.588,0.588-3.753S7.445,5.823,8.49,4.529H3.918V3.235h5.877V4.464z"/>
	<path fill="#1A1A1A" d="M28.735,19.8c-3.004,6.6-6.14,13.265-9.078,19.93l-2.939,0.388l-0.196-0.453
		c3.592-5.629,6.857-11.711,9.535-17.211h-6.792c-2.155,0-2.351,0.258-3.2,2.265h-1.045c0.392-2.265,0.588-3.947,0.718-5.371
		h12.669L28.735,19.8z"/>
	<path fill="#231F20" d="M6.857,23.294h2.547L9.339,23.1c-2.417-0.194-2.286-3.495-2.286-3.495s0.261,1.748,2.09,1.748
		c1.959,0,1.959-1.941,1.959-1.941c0-1.359-1.306-1.941-1.959-1.941c-0.653,0-0.849,0.129-0.849,0.129
		c0.849-0.777,0.849-0.971,0.849-1.424c-0.065-1.1-1.306-1.941-2.286-1.941c-0.98,0-2.286,0.841-2.286,1.941
		c0,0.647,0,0.647,0.849,1.424c0,0-0.392-0.129-0.849-0.129c-0.653,0-1.959,0.582-1.959,1.941c0,0,0.131,1.941,1.959,1.941
		c1.959,0,2.09-1.812,2.09-1.812s0.065,3.235-2.286,3.494l-0.065,0.259H6.857L6.857,23.294z"/>
</g>
</svg>
