<svg version="1.1" id="Layer_1" xmlns="http://www.w3.org/2000/svg" xmlns:xlink="http://www.w3.org/1999/xlink" x="0px" y="0px"
	 width="32px" height="44px" viewBox="0 0 32 44" enable-background="new 0 0 32 44" xml:space="preserve">
<g>
	<path fill="#383838" d="M3.069,0h25.927C30.629,0,32,1.359,32,3.041v37.917c0,1.683-1.371,3.041-3.069,3.041H3.069
		C1.372,43.999,0,42.641,0,40.958V3.041C0,1.359,1.372,0,3.069,0L3.069,0z"/>
	<path fill="#FFFFFF" d="M3.2,43.353c-1.372,0-2.547-1.165-2.547-2.588V3.235c0-1.424,1.175-2.588,2.547-2.588h25.6
		c1.372,0,2.547,1.165,2.547,2.588v37.529c0,1.423-1.175,2.588-2.547,2.588H3.2z"/>
	<path fill="#ED0000" d="M9.796,4.464C8.555,5.953,7.902,6.923,7.445,8.088c-0.457,1.1-0.261,2.2-0.261,3.559v1.294H5.877v-1.294
		c0-1.488,0.065-2.588,0.588-3.753C6.988,6.729,7.445,5.823,8.49,4.529H3.918V3.235h5.877V4.464z"/>
	<path fill="#ED0000" d="M28.735,19.8c-3.004,6.6-6.14,13.264-9.078,19.93l-2.939,0.388l-0.196-0.453
		c3.592-5.629,6.857-11.711,9.535-17.211h-6.792c-2.155,0-2.351,0.259-3.2,2.265h-1.045c0.392-2.265,0.588-3.947,0.718-5.371
		h12.669L28.735,19.8z"/>
	<polygon fill="#ED0000" points="6.857,14.882 5.029,17.276 2.612,19.088 5.029,20.899 6.857,23.294 8.686,20.899 11.102,19.088
		8.686,17.276 	"/>
</g>
</svg>
