<svg version="1.1" id="Layer_1" xmlns="http://www.w3.org/2000/svg" xmlns:xlink="http://www.w3.org/1999/xlink" x="0px" y="0px"
	 width="32px" height="44px" viewBox="0 0 32 44" enable-background="new 0 0 32 44" xml:space="preserve">
<g>
	<path fill="#383838" d="M3.069,0h25.927C30.629,0,32,1.359,32,3.041v37.918C32,42.642,30.629,44,28.931,44H3.069
		C1.372,44,0,42.642,0,40.959V3.041C0,1.359,1.372,0,3.069,0L3.069,0z"/>
	<path fill="#FFFFFF" d="M3.2,43.353c-1.372,0-2.547-1.164-2.547-2.588V3.235c0-1.424,1.175-2.588,2.547-2.588h25.6
		c1.372,0,2.548,1.165,2.548,2.588v37.529c0,1.424-1.176,2.588-2.548,2.588H3.2z"/>
	<path fill="#ED0000" d="M9.796,4.464C8.555,5.953,7.902,6.924,7.445,8.088c-0.457,1.1-0.261,2.2-0.261,3.559v1.294H5.877v-1.294
		c0-1.488,0.065-2.588,0.588-3.753S7.445,5.823,8.49,4.529H3.918V3.235h5.877V4.464z"/>
	<path fill="#ED0000" d="M28.735,19.8c-3.004,6.6-6.14,13.265-9.078,19.93l-2.939,0.388l-0.196-0.452
		c3.592-5.63,6.857-11.712,9.535-17.212h-6.792c-2.155,0-2.351,0.258-3.2,2.265h-1.045c0.392-2.265,0.588-3.947,0.718-5.371h12.669
		L28.735,19.8z"/>
	<path fill="#ED0000" d="M10.71,15.659c-0.588-0.453-1.176-0.776-1.567-0.776c-0.392,0-1.437-0.065-2.286,1.359
		c-0.849-1.424-1.829-1.294-2.221-1.294c-0.392,0-1.045,0.323-1.567,0.776c-0.522,0.518-0.457,1.359-0.261,1.812
		c0.196,0.453,4.049,5.112,4.049,5.112s3.918-4.723,4.114-5.176C11.167,17.018,11.233,16.176,10.71,15.659L10.71,15.659z"/>
</g>
</svg>
