<svg version="1.1" id="Layer_1" xmlns="http://www.w3.org/2000/svg" xmlns:xlink="http://www.w3.org/1999/xlink" x="0px" y="0px"
	 width="32px" height="44px" viewBox="0 0 32 44" enable-background="new 0 0 32 44" xml:space="preserve">
<g>
	<path fill="#383838" d="M3.069,0h25.927c1.632,0,3.003,1.359,3.003,3.041v37.917c0,1.683-1.371,3.041-3.069,3.041H3.069
		C1.372,43.999,0,42.641,0,40.958V3.041C0,1.359,1.372,0,3.069,0L3.069,0z"/>
	<path fill="#FFFFFF" d="M3.2,43.353c-1.372,0-2.547-1.165-2.547-2.588V3.235c0-1.424,1.175-2.588,2.547-2.588h25.599
		c1.372,0,2.548,1.165,2.548,2.588v37.529c0,1.423-1.176,2.588-2.548,2.588H3.2z"/>
	<path fill="#000000" d="M9.143,5.823c0,1.294-0.588,1.941-1.045,2.071C8.62,8.088,9.012,8.347,9.338,8.8c0.327,0.388,0.458,0.906,0.458,1.423
		c0,0.841-0.261,1.553-0.784,2.006c-0.522,0.453-1.241,0.712-2.089,0.712c-0.914,0-1.633-0.259-2.155-0.712
		c-0.588-0.453-0.849-1.165-0.849-2.006c0-0.518,0.131-0.971,0.458-1.423c0.327-0.388,0.718-0.712,1.306-0.906
		C5.224,7.7,4.571,7.118,4.571,5.823c0-1.941,1.502-2.588,2.351-2.588C7.706,3.235,9.143,3.882,9.143,5.823z M8.555,10.159
		c0-0.518-0.13-0.906-0.457-1.294C7.771,8.541,7.379,8.347,6.922,8.347c-0.523,0-0.914,0.194-1.241,0.518
		c-0.327,0.323-0.523,0.776-0.523,1.294s0.196,0.971,0.523,1.294c0.327,0.323,0.783,0.453,1.306,0.453
		c0.457,0,0.849-0.129,1.175-0.453C8.424,11.129,8.555,10.741,8.555,10.159z M8.032,5.888c0-0.647-0.196-1.618-1.11-1.618
		c-0.979,0-1.241,0.841-1.241,1.553c0,0.777,0.392,1.488,1.241,1.488C7.836,7.312,8.032,6.665,8.032,5.888z"/>
	<path fill="#1A1A1A" d="M21.485,19.412c3.396,0,5.747,2.135,5.747,4.853c0,0.906-0.327,1.748-0.979,2.459
		c-0.393,0.389-1.11,1.036-2.482,1.876c2.286,1.229,4.31,2.782,4.31,5.564c0,3.883-3.983,5.953-6.988,5.953
		c-3.983,0-6.726-2.07-6.726-5.436c0-1.488,0.718-2.329,1.371-2.912c0.522-0.518,1.894-1.423,2.938-2.006
		c-1.959-1.1-3.526-2.652-3.526-4.982C15.151,21.935,17.763,19.412,21.485,19.412L21.485,19.412z M21.42,38.952
		c1.894,0,3.2-1.423,3.134-3.623c0-2.33-1.828-3.365-4.767-4.853c-1.175,0.776-2.024,2.265-2.024,3.947
		C17.763,37.399,19.722,38.952,21.42,38.952L21.42,38.952z M21.093,20.576c-1.633,0-2.612,1.553-2.612,2.977
		c0,2.265,1.764,3.3,4.245,4.4c0.719-0.583,1.437-1.683,1.437-3.559C24.098,21.741,22.465,20.576,21.093,20.576L21.093,20.576z"/>
	<path fill="#231F20" d="M6.857,23.294h2.547L9.338,23.1c-2.416-0.194-2.286-3.494-2.286-3.494s0.261,1.747,2.09,1.747
		c1.959,0,1.959-1.941,1.959-1.941c0-1.359-1.306-1.941-1.959-1.941c-0.653,0-0.849,0.13-0.849,0.13
		c0.849-0.777,0.849-0.971,0.849-1.424c-0.065-1.1-1.306-1.941-2.286-1.941s-2.286,0.841-2.286,1.941c0,0.647,0,0.647,0.849,1.424
		c0,0-0.392-0.13-0.849-0.13c-0.653,0-1.959,0.583-1.959,1.941c0,0,0.13,1.941,1.959,1.941c1.959,0,2.09-1.812,2.09-1.812
		s0.065,3.235-2.286,3.494L4.31,23.294H6.857L6.857,23.294z"/>
</g>
</svg>
