<svg xmlns="http://www.w3.org/2000/svg" xmlns:xlink="http://www.w3.org/1999/xlink" version="1.1" id="Layer_1" x="0px" y="0px" width="32px" height="44px" viewBox="0 0 32 44" enable-background="new 0 0 32 44" xml:space="preserve">
<g>
	<path fill="#383838" d="M3.069,0h25.927C30.629,0,32,1.359,32,3.042v37.917C32,42.642,30.629,44,28.931,44H3.069   C1.372,44,0,42.642,0,40.959V3.042C0,1.359,1.372,0,3.069,0L3.069,0z"/>
	<path fill="#FFFFFF" d="M3.2,43.354c-1.372,0-2.547-1.165-2.547-2.589V3.235c0-1.424,1.175-2.588,2.547-2.588h25.6   c1.372,0,2.547,1.165,2.547,2.588v37.529c0,1.424-1.175,2.589-2.547,2.589H3.2z"/>
	<path fill="#1A1A1A" d="M6.922,23.294h2.743L9.6,23.035c-1.176-0.064-1.568-0.452-2.09-0.97c-0.522-0.582-0.458-2.135-0.458-2.135 c0.915,1.165,1.502,1.488,1.894,1.488c0.718,0,1.372-0.194,1.894-0.971s0.196-1.941-1.633-3.17C7.379,16.047,6.792,14.3,6.792,14.3 s-0.587,1.747-2.416,2.977c-1.829,1.229-2.155,2.394-1.633,3.17c0.588,0.712,1.306,0.906,2.024,0.906 c0.458,0,0.979-0.323,1.894-1.488c0,0,0.065,1.553-0.457,2.135c-0.522,0.583-0.915,0.906-2.09,0.971l-0.065,0.324H6.922 L6.922,23.294z"/>
	<path fill="#000000" d="M7.836,3.235h1.306v6.729c0,0.906-0.261,1.618-0.718,2.135c-0.457,0.583-1.11,0.841-1.894,0.841   c-0.849,0-1.437-0.259-1.959-0.712c-0.457-0.453-0.653-0.906-0.653-1.876h1.241c0,0.647,0.196,1.553,1.437,1.553   c0.98,0,1.306-0.97,1.306-1.553V3.235H7.836z"/>
	<path fill="#1A1A1A" d="M27.886,19.347c-0.719,0-1.307,0.194-1.764,0.583s-0.652,0.841-0.652,1.423v12.941   c0,1.488-0.588,3.365-1.764,4.27c-1.241,1.036-1.372,1.554-3.396,1.554c-1.241,0-2.351-0.389-3.331-1.101   c-0.914-0.711-1.372-1.424-1.372-2.265c0-0.646,0.196-1.164,0.523-1.553c0.326-0.453,0.849-0.646,1.501-0.646   c0.458,0,0.849,0.129,1.241,0.388c0.522,0.323,0.783,0.776,0.783,1.294c0,0.389-0.13,0.841-0.457,1.294   c-0.262,0.453-0.458,0.777-0.392,0.971c0.065,0.518,0.522,0.777,1.437,0.777c1.306,0,1.894-0.971,1.894-2.395v-15.53   c0-0.582-0.196-0.971-0.588-1.423c-0.457-0.388-1.044-0.583-1.698-0.583v-0.583h8.033V19.347z"/>
</g>
</svg>
