<svg version="1.1" id="Layer_1" xmlns="http://www.w3.org/2000/svg" xmlns:xlink="http://www.w3.org/1999/xlink" x="0px" y="0px"
	 width="32px" height="44px" viewBox="0 0 32 44" enable-background="new 0 0 32 44" xml:space="preserve">
<g>
	<path fill="#383838" d="M3.069,0h25.927C30.629,0,32,1.359,32,3.042v37.917C32,42.642,30.629,44,28.931,44H3.069
		C1.372,44,0,42.642,0,40.959V3.042C0,1.359,1.372,0,3.069,0L3.069,0z"/>
	<path fill="#FFFFFF" d="M3.2,43.354c-1.372,0-2.547-1.165-2.547-2.589V3.235c0-1.424,1.175-2.588,2.547-2.588h25.6
		c1.372,0,2.547,1.165,2.547,2.588v37.529c0,1.424-1.175,2.589-2.547,2.589H3.2z"/>
	<path fill="#231F20" d="M5.877,8.412H5.225v4.53H3.918V3.235h1.306v3.882h0.653L8.49,3.235h1.306L6.792,7.7l3.657,5.241H8.947
		L5.877,8.412z"/>
	<path fill="#1A1A1A" d="M24.294,40.118c-1.372-2.2-3.331-5.694-5.225-9.059c-0.522-0.906-0.849-1.1-1.241-1.035v5.888
		c0,2.718,0.262,2.977,2.09,3.171v1.035h-6.792v-1.035c1.763-0.194,2.024-0.453,2.024-3.171V23.618c0-2.782-0.196-2.977-2.09-3.17
		v-1.035h6.792v1.035c-1.763,0.194-1.959,0.388-1.959,3.17v5.5c0.522-0.194,1.11-0.647,1.763-1.617
		c1.502-2.006,2.743-3.818,3.592-5.306c0.653-1.035,0.588-1.488-0.522-1.682l-0.457-0.065v-1.035h6.074v1.035
		c-1.567,0.194-2.416,0.518-3.853,2.265c-1.241,1.553-2.481,3.3-3.788,5.047c1.632,3.041,3.723,6.535,5.225,8.994
		c1.11,1.747,1.697,2.136,2.743,2.33v1.035H24.294z"/>
	<path fill="#231F20" d="M6.857,23.294h2.547L9.338,23.1c-2.416-0.194-2.286-3.494-2.286-3.494s0.262,1.747,2.09,1.747
		c1.959,0,1.959-1.941,1.959-1.941c0-1.359-1.306-1.941-1.959-1.941c-0.653,0-0.849,0.129-0.849,0.129
		c0.849-0.776,0.849-0.97,0.849-1.423c-0.065-1.1-1.306-1.941-2.286-1.941s-2.286,0.841-2.286,1.941c0,0.647,0,0.647,0.849,1.423
		c0,0-0.392-0.129-0.849-0.129c-0.653,0-1.959,0.583-1.959,1.941c0,0,0.13,1.941,1.959,1.941c1.959,0,2.09-1.812,2.09-1.812
		s0.065,3.235-2.286,3.494L4.31,23.294H6.857L6.857,23.294z"/>
</g>
</svg>
