<svg version="1.1" id="Layer_1" xmlns="http://www.w3.org/2000/svg" xmlns:xlink="http://www.w3.org/1999/xlink" x="0px" y="0px"
	 width="32px" height="44px" viewBox="0 0 32 44" enable-background="new 0 0 32 44" xml:space="preserve">
<g>
	<path fill="#383838" d="M3.069,0h25.927C30.629,0,32,1.359,32,3.042v37.917C32,42.642,30.629,44,28.931,44H3.069
		C1.372,44,0,42.642,0,40.959V3.042C0,1.359,1.372,0,3.069,0L3.069,0z"/>
	<path fill="#FFFFFF" d="M3.2,43.353c-1.372,0-2.547-1.164-2.547-2.588V3.235c0-1.424,1.175-2.588,2.547-2.588h25.6
		c1.372,0,2.548,1.165,2.548,2.588v37.529c0,1.424-1.176,2.588-2.548,2.588H3.2z"/>
	<path fill="#ED0000" d="M5.877,8.412H5.225v4.53H3.918V3.235h1.306v3.882h0.653L8.49,3.235h1.306L6.792,7.7l3.657,5.241H8.947
		L5.877,8.412z"/>
	<path fill="#ED0000" d="M24.294,40.117c-1.372-2.2-3.331-5.694-5.225-9.059c-0.522-0.906-0.849-1.1-1.241-1.035v5.888
		c0,2.718,0.261,2.976,2.09,3.17v1.035h-6.792v-1.035c1.763-0.194,2.025-0.452,2.025-3.17V23.618c0-2.782-0.196-2.977-2.09-3.17
		v-1.036h6.792v1.036c-1.764,0.194-1.959,0.388-1.959,3.17v5.5c0.522-0.194,1.11-0.647,1.763-1.618
		c1.502-2.006,2.743-3.818,3.592-5.306c0.653-1.035,0.588-1.488-0.522-1.682l-0.457-0.064v-1.036h6.074v1.036
		c-1.568,0.194-2.417,0.518-3.854,2.264c-1.241,1.553-2.482,3.3-3.788,5.047c1.633,3.041,3.723,6.535,5.225,8.994
		c1.11,1.747,1.698,2.135,2.743,2.329v1.035H24.294z"/>
	<polygon fill="#ED0000" points="6.857,14.882 5.029,17.276 2.612,19.088 5.029,20.9 6.857,23.294 8.686,20.9 11.102,19.088
		8.686,17.276 	"/>
</g>
</svg>
