<svg xmlns="http://www.w3.org/2000/svg" xmlns:xlink="http://www.w3.org/1999/xlink" version="1.1" id="Layer_1" x="0px" y="0px" width="32px" height="44px" viewBox="0 0 32 44" enable-background="new 0 0 32 44" xml:space="preserve">
<g>
	<path fill="#383838" d="M3.069,0h25.927C30.629,0,32,1.359,32,3.041v37.917c0,1.683-1.371,3.041-3.069,3.041H3.069   C1.372,43.999,0,42.641,0,40.958V3.041C0,1.359,1.372,0,3.069,0L3.069,0z"/>
	<path fill="#FFFFFF" d="M3.2,43.353c-1.371,0-2.547-1.165-2.547-2.588V3.235c0-1.424,1.176-2.588,2.547-2.588h25.6   c1.371,0,2.547,1.165,2.547,2.588v37.529c0,1.423-1.176,2.588-2.547,2.588H3.2z"/>
	<path fill="#1A1A1A" d="M6.922,23.294h2.743L9.6,23.035c-1.176-0.064-1.568-0.452-2.09-0.97c-0.522-0.582-0.458-2.135-0.458-2.135 c0.915,1.165,1.502,1.488,1.894,1.488c0.718,0,1.372-0.194,1.894-0.971s0.196-1.941-1.633-3.17S6.792,14.3,6.792,14.3 s-0.587,1.747-2.416,2.977s-2.155,2.394-1.632,3.17c0.587,0.712,1.306,0.906,2.024,0.906c0.458,0,0.979-0.323,1.894-1.488 c0,0,0.065,1.553-0.457,2.135c-0.522,0.583-0.915,0.906-2.09,0.971l-0.065,0.324H6.922L6.922,23.294z"/>
	<path fill="#000000" d="M9.796,9.447c0,0.453-0.065,0.841-0.196,1.229c-0.131,0.388-0.262,0.647-0.458,0.971l1.306,1.294l-1.045,0.647   l-1.11-1.229c-0.262,0.129-0.522,0.323-0.849,0.388c-0.261,0.064-0.588,0.194-0.979,0.194c-0.98,0-1.763-0.323-2.351-0.906   c-0.588-0.647-0.849-1.488-0.849-2.588V6.729c0-1.1,0.261-1.941,0.849-2.588c0.588-0.583,1.371-0.906,2.351-0.906   c0.979,0,1.829,0.323,2.417,0.906c0.587,0.582,0.914,1.488,0.914,2.588V9.447z M8.49,6.6c0-0.777-0.196-1.23-0.522-1.618   C7.641,4.594,7.118,4.335,6.465,4.335c-0.653,0-1.11,0.194-1.437,0.647C4.702,5.37,4.571,5.823,4.571,6.6v2.847   c0,0.841,0.196,1.423,0.522,1.812c0.327,0.388,0.849,0.647,1.437,0.647c0.653,0,1.11-0.194,1.501-0.647   c0.327-0.389,0.523-1.036,0.523-1.876V6.6H8.49z"/>
	<path fill="#1A1A1A" d="M26.775,40.765c-1.307,0-2.547-0.064-3.331-0.324c-0.719-0.259-0.196,0.389-2.938-2.329   c-1.306-0.064-3.396-0.971-4.702-2.718c-1.306-1.683-2.09-4.076-2.09-6.664c0-5.177,2.743-9.965,7.706-9.965   c3.919,0,7.314,3.818,7.314,9.446c0,4.853-2.285,8.218-4.963,9.254c1.437,1.294,1.24,1.358,3.004,2.458V40.765z M22.334,36.234   c0.196,0.194,0.392,0.324,0.587,0.518c1.306-0.582,2.743-3.041,2.743-7.635c0-5.759-1.959-9.188-4.767-9.188   c-2.481,0-4.245,3.235-4.245,8.023c0,4.594,1.568,8.153,3.983,8.929L22.334,36.234z"/>
</g>
</svg>
